<svg version="1.1" id="Layer_1" xmlns="http://www.w3.org/2000/svg" xmlns:xlink="http://www.w3.org/1999/xlink" x="0px" y="0px"
	 width="100%" viewBox="0 0 2235 1016" enable-background="new 0 0 2235 1016" xml:space="preserve">
<path fill="#FFFFFF" opacity="1.000000" stroke="none" 
	d="
M1595.000000,1017.000000 
	C1430.974121,1017.000000 1266.948364,1017.000000 1102.628418,1016.602356 
	C1122.707397,1016.381226 1138.102661,1004.531799 1142.705688,994.986511 
	C1139.489136,992.623108 1136.239746,990.235718 1132.918579,987.795471 
	C1122.830322,1001.664062 1109.862183,1007.031738 1092.867310,1004.171753 
	C1069.347168,1000.213562 1055.575806,979.867798 1055.121704,958.471069 
	C1054.813232,943.941040 1059.562134,931.167480 1070.532349,920.841125 
	C1083.986450,908.176697 1104.844238,904.700195 1121.314331,916.122437 
	C1124.554688,918.369568 1127.241699,921.414856 1130.074585,923.992554 
	C1133.488403,921.420288 1136.730591,918.977234 1140.182495,916.376160 
	C1137.284180,909.717896 1131.277710,906.453125 1125.561523,903.342896 
	C1113.873169,896.983215 1101.235718,897.017578 1088.393799,898.951965 
	C1073.454468,901.202209 1061.890381,909.250366 1053.191772,920.839417 
	C1042.646851,934.888367 1040.298706,951.112366 1042.863159,968.512390 
	C1046.242065,991.439331 1065.010864,1011.193726 1087.534058,1015.085266 
	C1088.115601,1015.185730 1088.515381,1016.338135 1089.000000,1017.000000 
	C814.640869,1017.000000 540.281677,1017.000000 265.630859,1016.600647 
	C269.573822,1015.800903 273.911224,1015.854309 278.025543,1014.922607 
	C297.103943,1010.602356 310.635834,999.545227 318.312317,981.351074 
	C323.163208,969.854065 323.923096,958.120972 322.062408,945.907227 
	C319.266663,927.555542 309.401642,914.215454 293.698181,905.011475 
	C280.540833,897.299805 266.209625,896.486267 251.540604,899.013550 
	C233.487671,902.123840 220.466995,912.195923 211.983490,928.265808 
	C205.626663,940.307190 203.826019,953.013000 205.929550,966.518860 
	C209.303345,988.180359 220.630920,1003.472656 240.896225,1012.017212 
	C244.916412,1013.712280 248.964691,1015.340759 253.000000,1017.000000 
	C169.110718,1017.000000 85.221428,1017.000000 1.000000,1017.000000 
	C1.000000,994.308594 1.000000,971.615540 1.329842,948.536011 
	C5.422207,951.921387 9.324632,955.568787 12.858549,959.543823 
	C13.864685,960.675537 14.331079,962.827271 14.131315,964.394775 
	C13.386127,970.242188 12.261348,976.041260 11.192554,982.370361 
	C14.797288,980.569275 18.379917,979.496948 21.044649,977.307434 
	C27.868471,971.700684 34.002552,974.395203 40.253269,978.049255 
	C40.955383,978.459717 41.451603,979.252991 42.173157,979.593750 
	C44.234341,980.567261 46.362461,981.399109 48.766724,982.414368 
	C48.058598,976.905823 48.171104,972.032532 46.678787,967.713745 
	C45.033962,962.953735 46.795918,960.238281 50.000648,957.491577 
	C53.704182,954.317383 57.348854,951.074524 61.608688,947.345337 
	C53.775009,945.995789 46.974689,944.824280 40.220840,943.660767 
	C37.231621,937.302856 34.274181,931.012512 30.974174,923.993530 
	C27.974028,930.073425 25.604698,935.209900 22.897333,940.161621 
	C22.061625,941.690063 20.452385,943.556763 18.943468,943.821533 
	C13.017309,944.861206 6.989851,945.323425 1.000001,946.000000 
	C1.000000,631.091309 1.000000,316.182587 1.000000,1.000000 
	C171.692413,1.000000 342.384949,1.000000 513.363525,1.403333 
	C507.236145,2.204229 500.733978,2.065146 494.427765,3.109545 
	C480.718903,5.379910 466.880707,7.412622 453.508270,11.057361 
	C425.942871,18.570486 400.648926,31.585587 376.399323,46.378456 
	C347.002289,64.311378 320.702057,86.369812 296.194458,110.465919 
	C282.143890,124.280540 268.555511,138.608978 255.428848,153.304382 
	C246.339905,163.479553 238.025894,174.409149 230.013931,185.471222 
	C212.908508,209.088577 198.791580,234.480637 187.021774,261.146118 
	C179.160538,278.956390 170.975464,296.669434 164.168427,314.886719 
	C157.101593,333.799286 152.286346,353.453949 149.995453,373.610687 
	C148.593155,385.949127 146.596451,398.277252 146.159073,410.655670 
	C145.361023,433.241913 145.634247,455.860504 150.013428,478.186035 
	C152.189224,489.278595 153.752899,500.568512 156.947052,511.368835 
	C164.855850,538.110596 179.763641,560.364258 201.492676,578.108459 
	C218.095657,591.666748 236.142761,602.124817 256.872650,608.121033 
	C278.728729,614.443054 300.889618,616.699646 323.359741,613.849670 
	C340.333069,611.696899 356.977661,607.688416 373.324860,602.375977 
	C398.642761,594.148376 422.072998,581.963501 444.803406,568.473267 
	C465.149475,556.398071 485.452728,544.085999 503.435028,526.242615 
	C502.834229,528.817688 502.634125,530.154053 502.211273,531.415710 
	C495.823273,550.474304 489.859772,569.691467 482.873138,588.528931 
	C475.302979,608.939819 466.185944,628.767212 454.284607,647.048096 
	C445.541962,660.477173 436.435913,673.814270 426.115784,686.029846 
	C416.450470,697.470337 405.594788,708.120789 394.111084,717.744324 
	C384.012848,726.206909 372.679108,733.384216 361.251068,740.028442 
	C342.224396,751.090698 321.959320,754.837708 300.614868,746.852295 
	C292.280518,743.734253 286.190735,734.564453 285.961365,725.687622 
	C285.723114,716.465454 289.516663,708.671875 294.292725,701.262634 
	C302.019348,689.276001 299.111725,676.294128 287.138092,671.744690 
	C280.114685,669.076050 272.867249,669.479431 265.639771,671.764160 
	C250.473709,676.558411 241.290680,687.489014 235.293823,701.442932 
	C229.463348,715.009644 229.428482,728.868958 234.331940,742.839722 
	C237.743149,752.558777 244.195084,759.929626 251.389206,766.965637 
	C265.910217,781.167542 283.634430,788.963379 303.398865,790.714905 
	C320.559357,792.235718 337.843201,791.160767 354.900330,787.126343 
	C378.019806,781.658081 400.435150,774.213257 421.990479,764.395325 
	C451.490479,750.958618 475.599915,729.899902 498.603546,707.659119 
	C509.722839,696.908569 519.614990,684.889038 530.065674,673.446655 
	C543.071228,659.207031 552.806763,642.733948 561.941772,625.933777 
	C576.321289,599.488281 586.446106,571.387024 594.411987,542.365112 
	C602.502075,512.891052 611.731384,483.731506 620.228271,454.366669 
	C630.248962,419.735504 640.183289,385.077057 649.761902,350.322083 
	C651.731323,343.176300 652.445129,335.577850 652.841980,328.140289 
	C653.137207,322.605988 650.484802,318.142487 643.751160,318.914398 
	C637.374390,319.645416 630.918518,319.721283 624.493347,319.987976 
	C607.651428,320.686981 590.808838,321.375244 573.963196,321.974762 
	C568.767334,322.159607 564.894775,324.293945 562.545288,328.947266 
	C558.995117,335.978790 556.648376,343.267517 556.914368,351.335815 
	C557.053955,355.571686 556.694214,359.910828 555.895508,364.075897 
	C552.323364,382.704346 545.848083,400.397339 537.228882,417.221832 
	C526.348999,438.459229 513.998474,458.845520 497.831024,476.554077 
	C487.284851,488.105530 476.788910,499.866699 465.024445,510.101776 
	C449.382172,523.710510 431.873962,534.879456 412.532593,542.808167 
	C398.880096,548.404724 384.727509,552.617188 370.061096,553.817261 
	C354.973969,555.051636 339.982239,553.210815 325.050995,550.131409 
	C296.238098,544.189209 276.069580,527.988220 263.810059,501.422363 
	C253.076157,478.162537 249.286270,453.392426 248.121170,428.179382 
	C247.207901,408.415771 248.289124,388.615631 252.102325,369.164429 
	C255.795486,350.325378 259.683502,331.474091 264.692719,312.954559 
	C273.691833,279.684143 290.105011,249.605347 307.565491,220.223999 
	C318.535645,201.764145 331.061951,184.225693 342.976074,166.331085 
	C356.064606,146.672562 371.319946,128.680161 387.873596,111.983231 
	C400.912872,98.831085 415.042786,86.610901 429.638367,75.191048 
	C445.813934,62.534992 463.845276,52.827202 483.345612,45.811474 
	C499.414978,40.030109 516.059387,37.266766 532.819031,36.256218 
	C553.113708,35.032532 573.610413,34.884399 593.224182,42.054657 
	C602.559326,45.467312 611.950806,49.281799 618.362488,57.109299 
	C625.104431,65.340012 627.587524,75.545563 627.953796,86.101273 
	C628.291138,95.822433 626.383545,105.244934 621.908386,113.867210 
	C615.543335,126.130798 607.945496,137.291672 593.849670,142.100418 
	C585.947449,144.796234 578.264160,148.132507 570.473938,151.158737 
	C566.329529,152.768707 565.162476,156.221039 566.124634,159.941971 
	C568.830994,170.408112 573.077698,180.057510 582.233521,186.758438 
	C594.104309,195.446487 607.374023,198.378204 621.476135,194.925110 
	C634.522156,191.730606 645.121582,184.273178 653.853699,173.802551 
	C668.361511,156.406418 674.207458,136.095886 674.859314,114.044197 
	C675.080444,106.565041 673.863281,99.013885 672.961243,91.536903 
	C670.844910,73.994331 663.516479,58.651817 651.907532,45.541275 
	C636.835266,28.519550 617.187866,18.284355 596.082642,11.217880 
	C576.049744,4.510436 555.110474,2.087286 533.953125,1.957716 
	C532.633545,1.949635 531.317627,1.333329 530.000000,0.999999 
	C1098.576050,1.000000 1667.152222,1.000000 2236.000000,1.000000 
	C2236.000000,316.692444 2236.000000,632.385010 2235.578613,948.538452 
	C2231.174072,948.332397 2227.208496,947.522278 2223.203613,947.035156 
	C2218.336670,946.443237 2214.446289,945.207886 2212.799561,939.638184 
	C2211.498291,935.235474 2208.930908,931.206909 2206.649902,926.435242 
	C2203.654785,931.761658 2200.694092,936.363403 2198.427490,941.284912 
	C2196.840576,944.729736 2194.781738,945.989075 2191.033936,946.116638 
	C2186.126465,946.283630 2181.247314,947.285706 2175.543213,948.035400 
	C2179.957520,952.447632 2183.575928,956.323975 2187.485840,959.879211 
	C2190.034668,962.196838 2190.365479,964.659546 2189.664551,967.821106 
	C2188.512695,973.017944 2187.697266,978.289490 2186.626953,984.148254 
	C2192.200684,981.367981 2197.201904,979.076599 2201.989990,976.403442 
	C2204.584717,974.954895 2206.645508,975.060730 2209.149414,976.533936 
	C2213.808594,979.275208 2218.645996,981.713806 2224.458984,984.843750 
	C2223.607666,979.995789 2222.746826,976.376404 2222.396240,972.708191 
	C2222.092041,969.526794 2221.086670,965.320129 2222.639893,963.270752 
	C2226.394043,958.317261 2231.461914,954.359253 2236.000000,950.000000 
	C2236.000000,972.305603 2236.000000,994.611267 2236.000000,1017.000000 
	C2144.974121,1017.000000 2053.948242,1017.000000 1962.628906,1016.601929 
	C1973.089722,1016.173767 1983.176514,1013.688538 1992.357544,1007.957031 
	C2011.883179,995.767578 2019.924072,977.242249 2019.752808,955.171631 
	C2019.666870,944.092407 2016.635986,933.216431 2010.246582,923.587463 
	C2004.142700,914.388489 1996.267822,907.596741 1986.248047,902.900940 
	C1976.747437,898.448425 1966.862183,897.636230 1956.644287,897.977417 
	C1937.798950,898.606689 1922.837646,906.785706 1912.117432,921.971008 
	C1902.145996,936.096069 1900.211914,952.139893 1902.908691,969.051147 
	C1906.742432,993.090698 1925.367432,1010.926208 1947.534546,1015.084167 
	C1948.122192,1015.194458 1948.515869,1016.338196 1949.000000,1017.000000 
	C1834.974121,1017.000000 1720.948364,1017.000000 1606.625000,1016.604797 
	C1607.653320,1016.139771 1608.978760,1016.051636 1610.305420,1016.002930 
	C1622.842285,1015.542053 1637.475830,1006.380066 1641.586182,992.999390 
	C1644.999878,981.886658 1642.504395,965.844238 1631.542114,960.099609 
	C1626.014648,957.203064 1620.367310,954.498413 1614.623657,952.061951 
	C1608.571289,949.494507 1602.167480,947.718506 1596.221313,944.944946 
	C1583.604004,939.059692 1582.862061,925.686584 1589.912231,916.670227 
	C1595.581909,909.419250 1610.260864,906.501892 1619.091187,911.122620 
	C1623.486816,913.422791 1627.290039,916.855164 1631.431030,919.825439 
	C1634.515381,917.353577 1637.774902,914.741211 1641.457275,911.790039 
	C1638.530273,909.094849 1636.035889,906.138733 1632.946655,904.071167 
	C1621.402344,896.344604 1608.307861,896.088013 1595.738525,899.357483 
	C1572.869507,905.306030 1567.124756,928.320007 1575.440308,944.823730 
	C1579.189697,952.265076 1586.134399,956.142456 1593.662231,959.006287 
	C1602.211548,962.258728 1610.777222,965.468750 1619.310303,968.763367 
	C1626.625122,971.587769 1629.943604,978.048645 1629.668823,984.813416 
	C1629.258423,994.916992 1623.328369,1001.168701 1613.035278,1003.899780 
	C1599.323242,1007.537903 1588.486450,1002.702942 1580.455444,990.928223 
	C1577.801758,992.938660 1575.406616,995.236145 1572.594482,996.768494 
	C1568.580200,998.955872 1570.153564,1000.595276 1572.360718,1002.966736 
	C1578.191528,1009.231873 1585.091919,1013.429993 1593.537354,1015.084717 
	C1594.127441,1015.200256 1594.517090,1016.337708 1595.000000,1017.000000 
M1958.187134,675.000244 
	C1947.307861,680.286804 1936.529297,685.794189 1925.529297,690.816284 
	C1898.564331,703.126953 1870.822632,713.296631 1842.282715,721.429871 
	C1815.598999,729.034180 1788.418823,733.968262 1761.036987,737.906433 
	C1748.098877,739.767273 1735.042725,740.940735 1722.002075,741.920166 
	C1708.519409,742.932800 1694.992676,743.829163 1681.481567,743.886414 
	C1659.899170,743.977783 1638.309570,743.491638 1616.730713,742.947266 
	C1601.049072,742.551758 1585.373047,741.794067 1569.706787,740.966919 
	C1553.768311,740.125305 1537.847046,738.964111 1521.914062,738.012146 
	C1509.742676,737.284912 1497.563843,736.684448 1485.390503,735.989319 
	C1480.466431,735.708191 1475.544678,735.370361 1470.627930,734.980957 
	C1454.108765,733.672729 1437.591064,732.348267 1421.075806,730.991821 
	C1413.398438,730.361267 1405.712891,729.781433 1398.058594,728.930664 
	C1387.364380,727.742065 1376.705444,726.237366 1366.013550,725.024658 
	C1356.102295,723.900574 1346.146973,723.151245 1336.248901,721.930054 
	C1324.297852,720.455811 1312.402466,718.531982 1300.453735,717.036133 
	C1288.465332,715.535400 1276.419312,714.489014 1264.437500,712.942383 
	C1247.651733,710.775574 1230.915405,708.227112 1214.132935,706.032898 
	C1197.802612,703.897888 1181.450806,701.918579 1165.090332,700.028015 
	C1149.671265,698.246277 1134.237183,696.585876 1118.794067,695.026672 
	C1104.456787,693.579041 1090.107788,692.227783 1075.747559,691.033081 
	C1061.996094,689.889160 1048.230591,688.879150 1034.457642,688.035828 
	C1020.958679,687.209290 1007.442688,686.118530 993.933655,686.110962 
	C963.018433,686.093628 932.096741,686.399597 901.190063,687.111633 
	C885.579590,687.471191 869.987732,688.888184 854.402954,690.037292 
	C843.463379,690.843933 832.481018,691.532654 821.640686,693.115662 
	C803.830994,695.716431 785.971741,698.317749 768.405273,702.161377 
	C744.331299,707.428833 720.302002,713.131409 696.630554,719.955200 
	C659.090088,730.777039 623.033569,745.545593 588.899048,764.674316 
	C576.117188,771.837158 563.782776,779.798401 550.803101,787.778625 
	C550.663025,788.115417 550.523010,788.452209 550.382935,788.789001 
	C550.946655,788.552856 551.510376,788.316711 552.842957,788.006897 
	C555.208435,787.014587 557.528809,785.893005 559.946350,785.049988 
	C583.769592,776.741821 607.434937,767.923096 631.504517,760.399170 
	C647.779297,755.311951 664.544861,751.667847 681.247498,748.114014 
	C696.453674,744.878479 711.841370,742.447815 727.204102,740.009766 
	C741.340881,737.766235 755.524353,735.759399 769.737488,734.071716 
	C781.124512,732.719543 792.571655,731.745605 804.019592,731.065857 
	C819.512207,730.145813 835.027954,729.215698 850.539246,729.113037 
	C870.453308,728.981201 890.376892,729.513611 910.288635,730.048523 
	C926.135864,730.474243 941.973877,731.279602 957.811340,732.016663 
	C970.322998,732.598938 982.829041,733.307007 995.334412,734.014771 
	C999.760010,734.265259 1004.184204,734.600586 1008.595398,735.035767 
	C1021.614014,736.320068 1034.625244,737.678772 1047.640503,738.997986 
	C1054.478027,739.691101 1061.330811,740.253418 1068.153442,741.070068 
	C1078.342041,742.289673 1088.505249,743.718384 1098.687988,744.988892 
	C1107.593018,746.100098 1116.525757,746.998474 1125.417480,748.203125 
	C1136.370361,749.687073 1147.284302,751.456055 1158.232178,752.978760 
	C1166.625244,754.146179 1175.057617,755.031128 1183.449463,756.207031 
	C1194.232788,757.718140 1204.973267,759.546204 1215.768555,760.958618 
	C1227.418335,762.482788 1239.122437,763.590149 1250.780762,765.053772 
	C1263.057251,766.594971 1275.288696,768.505127 1287.575562,769.949768 
	C1298.138550,771.191833 1308.762451,771.907837 1319.340820,773.031921 
	C1334.118042,774.602234 1348.866943,776.443970 1363.648926,777.964722 
	C1375.059570,779.138611 1386.494507,780.106567 1397.933350,780.969299 
	C1412.687866,782.082153 1427.451294,783.095459 1442.221680,783.971497 
	C1455.721802,784.772278 1469.231567,785.458008 1482.745605,785.964233 
	C1495.991821,786.460571 1509.250122,786.988708 1522.500854,786.933899 
	C1551.416382,786.814331 1580.333008,786.470581 1609.243652,785.923950 
	C1619.095093,785.737671 1628.932983,784.712708 1638.771484,783.995239 
	C1656.622559,782.693542 1674.483032,781.492310 1692.313232,779.945496 
	C1704.512329,778.887329 1716.800781,778.035034 1728.809570,775.802429 
	C1746.726929,772.471191 1764.479126,768.197632 1782.218872,763.978027 
	C1811.760376,756.951416 1840.061279,746.253174 1867.311768,733.044556 
	C1884.997559,724.472107 1902.382080,715.084778 1919.095459,704.757874 
	C1933.249634,696.012329 1946.246582,685.393799 1960.197144,675.221252 
	C1960.337158,674.884521 1960.477173,674.547791 1960.617188,674.211060 
	C1960.053467,674.447144 1959.489746,674.683289 1958.187134,675.000244 
M1766.039795,244.455338 
	C1755.302246,253.526688 1744.003296,262.023315 1733.973999,271.819763 
	C1722.309692,283.213135 1711.085327,295.204865 1700.878052,307.907623 
	C1685.047607,327.607849 1671.819824,349.043304 1662.635010,372.779114 
	C1654.741943,393.176819 1649.092407,414.147400 1645.993042,435.802948 
	C1645.051514,442.381836 1645.105347,449.337341 1642.872192,455.451447 
	C1637.193115,470.998505 1630.660522,486.245331 1624.138184,501.470306 
	C1613.144409,527.132751 1600.474487,551.820923 1578.373779,569.995605 
	C1565.142944,580.875977 1550.531372,588.412109 1532.422729,585.039001 
	C1524.512207,583.565552 1517.284058,580.427429 1512.239014,574.348999 
	C1504.621948,565.171570 1501.646973,554.066833 1502.018066,542.150879 
	C1502.254517,534.560181 1502.108398,526.899231 1503.124878,519.404175 
	C1504.822510,506.885376 1506.587891,494.293579 1509.632568,482.057922 
	C1514.878662,460.975525 1521.126953,440.142487 1526.957642,419.205597 
	C1536.238525,385.879120 1544.525391,352.241852 1557.016846,319.899323 
	C1567.153198,293.653992 1577.580200,267.520355 1587.971924,241.374344 
	C1596.229492,220.598297 1604.788940,199.939926 1612.779907,179.063004 
	C1613.889038,176.164932 1615.294678,174.569366 1617.758179,174.189285 
	C1627.896729,172.625092 1638.081665,171.361343 1648.251709,170.002625 
	C1656.325195,168.923965 1664.402222,167.871597 1672.476807,166.800751 
	C1682.000977,165.537643 1691.547729,164.419495 1701.041382,162.957352 
	C1710.638062,161.479340 1720.404663,160.439407 1729.692627,157.790192 
	C1741.565918,154.403534 1743.139648,144.381027 1739.758179,135.092941 
	C1738.324829,131.156601 1734.740112,127.801476 1729.479736,127.980705 
	C1717.892578,128.375519 1706.298218,128.567612 1694.713745,129.022720 
	C1680.364868,129.586426 1666.022949,130.332977 1651.678101,130.999222 
	C1650.684937,131.045349 1649.690674,131.068558 1648.697998,131.122375 
	C1641.196411,131.528992 1633.695190,131.940598 1625.271729,132.401047 
	C1629.230469,122.985443 1632.663208,114.694557 1636.196655,106.446815 
	C1641.265137,94.616348 1646.500854,82.856621 1651.473145,70.986267 
	C1653.558594,66.007599 1650.156616,58.267509 1643.537109,58.008060 
	C1634.282227,57.645306 1625.027222,57.115746 1615.769165,57.045189 
	C1596.270264,56.896587 1576.768921,57.085480 1557.270020,56.938972 
	C1552.486816,56.903030 1549.564575,58.794426 1547.957642,63.206314 
	C1545.704468,69.392029 1543.302612,75.523415 1540.993286,81.688812 
	C1534.000732,100.357430 1526.858276,118.972969 1520.176636,137.752380 
	C1518.849487,141.482590 1516.493042,142.527313 1513.405640,142.929291 
	C1509.015015,143.500977 1504.571533,143.672104 1500.149414,143.998108 
	C1490.973755,144.674530 1481.788086,145.235306 1472.623169,146.034622 
	C1458.429443,147.272537 1444.247925,148.652145 1430.064575,150.008316 
	C1423.554810,150.630783 1417.007446,151.061630 1410.566528,152.122177 
	C1407.094727,152.693848 1403.475098,154.240250 1403.050537,158.563324 
	C1402.505615,164.111511 1402.130859,169.693329 1402.050415,175.265961 
	C1401.947021,182.437851 1404.663086,184.997208 1411.781616,184.998215 
	C1441.781616,185.002441 1471.781494,185.000000 1501.781494,185.000000 
	C1503.500977,185.000000 1505.220581,185.000000 1507.642090,185.000000 
	C1501.532471,200.897110 1495.776611,215.879700 1490.016235,230.860489 
	C1482.341919,250.818237 1473.971558,270.541321 1467.151733,290.786774 
	C1457.192627,320.350739 1448.128174,350.223877 1439.125000,380.098602 
	C1435.176880,393.199310 1432.222656,406.605469 1429.008789,419.919189 
	C1427.344360,426.814117 1426.744629,434.025909 1424.511597,440.709564 
	C1421.205811,450.604156 1417.180420,460.293427 1412.903198,469.819489 
	C1407.560669,481.718414 1402.450806,493.846710 1395.724487,504.958405 
	C1390.699585,513.259766 1383.188477,520.037598 1376.934937,527.617920 
	C1366.722412,539.997192 1355.025146,550.819763 1341.636963,559.553223 
	C1334.202637,564.402954 1325.814209,567.790283 1317.855835,571.836731 
	C1320.388428,567.821472 1323.883423,565.241028 1326.444458,561.936584 
	C1343.180664,540.341492 1348.934570,514.912903 1350.829346,488.447083 
	C1351.546265,478.434052 1350.966919,468.210663 1349.828369,458.214172 
	C1348.605347,447.477966 1347.347046,436.430450 1343.780396,426.340271 
	C1335.588013,403.163879 1325.984497,380.486328 1316.952759,357.606720 
	C1309.275391,338.157806 1300.240234,319.037079 1297.330200,298.167633 
	C1295.616089,285.874054 1296.715942,273.308838 1304.143311,262.370728 
	C1307.779053,257.016571 1311.429565,251.671829 1315.133667,246.364960 
	C1321.993408,236.536942 1320.885864,219.781281 1305.543701,217.804413 
	C1302.880737,217.461288 1300.348755,216.147827 1297.738770,215.339218 
	C1276.656738,208.807892 1255.360474,208.550598 1233.857910,213.003464 
	C1225.917969,214.647690 1221.660156,219.394943 1218.877197,226.970703 
	C1212.336914,244.774017 1205.177612,262.357086 1197.957275,279.901123 
	C1192.568237,292.995911 1186.729492,305.906708 1181.024414,318.870087 
	C1172.993896,337.117859 1165.975830,355.915009 1156.573608,373.429871 
	C1143.840454,397.150085 1129.783203,420.211304 1115.335815,442.946381 
	C1097.744141,470.629242 1079.642090,498.021637 1060.738892,524.818848 
	C1054.049683,534.301514 1044.800293,542.179688 1035.908447,549.849915 
	C1027.218994,557.345398 1016.253784,560.809143 1005.071777,562.903992 
	C986.991028,566.291382 974.231323,551.318359 973.902649,537.618164 
	C973.731750,530.492310 976.350769,524.473633 978.790710,518.027527 
	C985.960815,499.084808 992.365356,479.850647 998.976440,460.698395 
	C1009.524658,430.140167 1019.961914,399.543610 1030.512573,368.986237 
	C1040.378174,340.413025 1050.253174,311.842499 1060.299683,283.332672 
	C1062.762085,276.344788 1058.275757,268.567474 1049.939575,268.790070 
	C1027.122437,269.399475 1004.272705,269.297119 981.447998,268.851868 
	C972.479919,268.676910 966.542419,272.110657 963.111084,281.718964 
	C951.216187,315.026550 939.559265,348.419128 927.656860,381.724030 
	C915.700317,415.180267 903.516907,448.555359 891.515076,481.995514 
	C885.214111,499.551575 880.278137,517.725586 868.954590,533.017151 
	C862.660889,541.516235 856.691833,550.450378 849.249023,557.853821 
	C840.295837,566.759460 828.507263,571.474060 816.124451,573.736511 
	C811.600586,574.563049 806.401428,574.230408 802.025818,572.823486 
	C791.678040,569.496277 789.767395,560.143738 789.113159,550.980225 
	C787.802856,532.627258 793.758301,515.261047 797.880310,497.763367 
	C800.968018,484.655945 805.765503,471.937256 810.053467,459.129761 
	C817.458801,437.010864 825.060303,414.957611 832.578308,392.876465 
	C845.123474,356.030151 857.675903,319.186340 870.200989,282.333191 
	C871.626465,278.138855 872.149963,273.649780 868.692566,270.418854 
	C865.442444,267.381775 861.260071,265.909119 856.556641,267.691071 
	C855.375977,268.138367 853.942017,267.972839 852.623108,267.991455 
	C828.200684,268.336456 803.778198,268.678925 779.355225,268.985840 
	C775.971863,269.028381 773.445251,270.129852 771.893188,273.394135 
	C767.746155,282.116364 763.220215,290.663910 759.248047,299.462860 
	C747.921265,324.553894 736.820312,349.746826 725.582520,374.878174 
	C713.947815,400.897217 702.046692,426.799622 690.670471,452.930847 
	C684.003723,468.244720 677.656982,483.735565 672.051514,499.462311 
	C667.230347,512.988586 664.704102,527.175720 665.077881,541.628723 
	C665.341064,551.809875 665.944519,562.015991 667.088562,572.132629 
	C668.800903,587.274902 674.832642,600.811584 684.862549,612.247070 
	C699.649536,629.106323 719.164062,636.723511 740.972900,637.735779 
	C751.986145,638.246887 763.314941,636.947571 774.172302,634.802551 
	C797.455078,630.202698 817.933044,619.444397 834.197571,602.039490 
	C844.227966,591.305908 852.920410,579.322021 861.801575,568.405823 
	C863.117981,580.464294 866.186035,592.934570 872.768494,604.282288 
	C881.200745,618.818909 893.449585,628.964417 909.504272,633.893799 
	C923.072876,638.059753 936.964905,638.821960 951.214172,637.171265 
	C967.165222,635.323303 982.490356,631.507507 996.470459,623.889343 
	C1010.047302,616.490662 1022.914307,607.774353 1035.988159,599.471619 
	C1049.993896,590.577087 1062.873291,580.258606 1074.301758,568.190125 
	C1079.303711,562.907959 1084.260986,557.583374 1089.225220,552.265625 
	C1091.170654,550.181580 1093.383423,548.266724 1094.950684,545.924316 
	C1100.878906,537.064636 1106.662842,528.106018 1112.370605,519.101929 
	C1123.264038,501.917236 1134.261719,484.793976 1144.859131,467.427338 
	C1157.293945,447.049713 1169.615479,426.593079 1181.483521,405.882599 
	C1190.868896,389.504639 1199.538208,372.714569 1208.415161,356.048737 
	C1209.920776,353.221924 1210.868774,350.098206 1211.728638,347.968323 
	C1216.226807,357.831085 1219.904907,368.282135 1225.474609,377.602966 
	C1236.513062,396.076324 1246.736694,414.733856 1252.452515,435.689667 
	C1255.088989,445.355774 1257.269165,454.947571 1256.973755,464.975586 
	C1256.779663,471.568481 1256.635254,478.186523 1255.929443,484.735168 
	C1254.866577,494.596069 1254.167969,504.610229 1251.827515,514.196167 
	C1246.604858,535.587158 1237.775146,555.287842 1219.956543,569.449524 
	C1204.468018,581.759277 1187.281372,590.086060 1166.828491,588.960938 
	C1151.299194,588.106689 1138.647461,581.408508 1128.752319,569.384399 
	C1125.250732,565.129456 1122.106689,560.171387 1117.689087,557.166382 
	C1109.196411,551.389282 1097.535034,553.087158 1092.126099,560.566162 
	C1085.243164,570.083191 1084.904785,583.502869 1091.625488,591.898193 
	C1095.710938,597.001465 1100.750122,601.586731 1106.075439,605.409241 
	C1128.964111,621.839294 1155.064697,629.451050 1182.844604,630.856262 
	C1210.665649,632.263550 1238.218994,629.635681 1265.665649,624.248413 
	C1286.748413,620.110229 1306.652588,613.189636 1326.084595,604.438416 
	C1342.109619,597.221436 1356.148926,586.798096 1370.593628,576.996643 
	C1383.710571,568.096252 1397.308105,559.835938 1407.781616,547.649292 
	C1412.261963,542.436096 1416.353394,536.888611 1419.629517,532.746948 
	C1421.656250,545.425781 1423.116211,559.211670 1426.194336,572.626404 
	C1429.950928,588.997925 1439.057739,602.331482 1452.799683,612.334167 
	C1464.505127,620.854553 1477.141479,626.543335 1491.802002,628.164307 
	C1505.199951,629.645630 1518.406860,629.597900 1531.275513,625.855347 
	C1541.432251,622.901489 1551.327515,618.943359 1561.144897,614.953613 
	C1574.874878,609.373840 1587.826538,601.958557 1598.422729,591.736877 
	C1616.353027,574.440430 1634.967285,557.676758 1649.433716,536.994141 
	C1659.883423,561.142883 1673.507690,582.503845 1693.773682,599.470459 
	C1712.323853,615.000916 1734.249146,620.709473 1757.374146,622.780884 
	C1768.011475,623.733704 1778.889648,622.726440 1789.604736,621.904297 
	C1804.062744,620.794922 1817.906006,616.643555 1830.920898,610.446899 
	C1859.852905,596.671631 1883.785034,576.589172 1903.942505,551.704529 
	C1917.160522,535.386841 1928.059326,517.793884 1937.107666,498.871765 
	C1946.818604,478.564148 1954.046143,457.486359 1959.099243,435.594330 
	C1959.412476,434.237610 1960.955200,432.295013 1962.128540,432.137909 
	C1977.703613,430.052673 1992.066406,424.218994 2005.938232,417.392273 
	C2023.121216,408.936188 2039.157593,398.608673 2053.714600,385.952820 
	C2067.330078,374.115662 2080.257812,361.545288 2089.682861,346.247498 
	C2098.533691,331.881622 2105.532959,316.366180 2113.116211,301.240936 
	C2113.901855,299.674042 2113.584473,297.165588 2112.981934,295.359711 
	C2110.594727,288.203278 2104.627930,285.127930 2097.995605,282.972504 
	C2092.891602,281.313843 2088.858887,282.630402 2085.999023,287.199371 
	C2078.405762,299.330780 2071.137451,311.781891 2060.665771,321.690063 
	C2046.787598,334.821808 2032.833130,347.937469 2018.120728,360.104065 
	C2005.136963,370.841156 1990.334717,378.900421 1973.937500,383.518585 
	C1970.784668,384.406586 1967.442871,384.624023 1963.720947,385.226471 
	C1964.261719,382.195984 1964.913818,380.133362 1964.955933,378.058350 
	C1965.362427,357.970612 1965.736816,337.881531 1965.943481,317.791016 
	C1965.987183,313.541595 1965.727051,309.201050 1964.891479,305.046387 
	C1961.873413,290.040802 1958.511597,275.186523 1952.185425,261.035400 
	C1946.436890,248.176193 1938.473999,237.085220 1927.675171,228.477814 
	C1913.119019,216.875336 1895.556396,212.784149 1877.302856,212.121735 
	C1867.573364,211.768661 1857.770142,212.318680 1848.053101,213.109955 
	C1840.302368,213.741089 1832.394287,214.535568 1824.970825,216.688156 
	C1804.148804,222.725952 1784.377808,231.275925 1766.039795,244.455338 
M1993.964111,67.078232 
	C1995.146362,53.778778 1992.554199,41.570507 1984.019897,30.884520 
	C1976.978394,22.067936 1967.655518,16.583157 1956.872925,15.282999 
	C1946.200684,13.996158 1935.250610,14.921725 1924.426514,15.111393 
	C1923.209351,15.132720 1921.474976,16.409887 1920.909790,17.560896 
	C1918.429199,22.613569 1916.390381,27.880690 1914.008911,32.984955 
	C1905.977539,50.199757 1898.709106,67.840370 1889.578247,84.454941 
	C1877.899658,105.704979 1860.705566,122.979973 1845.125732,141.367325 
	C1839.131714,148.441559 1833.088013,155.473846 1826.270142,163.458496 
	C1829.402466,162.776001 1831.334106,162.560699 1833.122070,161.934784 
	C1862.550415,151.632828 1892.011719,141.420746 1921.353882,130.878098 
	C1936.314331,125.502800 1951.787476,121.304153 1964.682251,111.115685 
	C1979.054321,99.760117 1991.184814,87.163704 1993.964111,67.078232 
M434.152924,1011.709839 
	C435.218628,1012.472961 436.250336,1013.831360 437.356079,1013.894531 
	C441.787262,1014.147705 446.241394,1013.999146 450.743591,1013.999146 
	C450.743591,975.771057 450.743591,938.039490 450.743591,900.270752 
	C446.413361,900.270752 442.344788,900.270752 437.829712,900.270752 
	C437.829712,931.520264 437.829712,962.501892 437.829712,993.966553 
	C423.589905,973.740784 409.731598,954.056152 395.872406,934.372131 
	C388.228638,923.515686 380.602570,912.646545 372.899414,901.832397 
	C372.321686,901.021301 371.207550,900.125122 370.309357,900.088501 
	C365.900970,899.908997 361.481262,900.007080 357.199036,900.007080 
	C357.199036,938.350159 357.199036,975.963501 357.199036,1013.787903 
	C361.132324,1013.787903 364.866608,1013.787903 369.019867,1013.787903 
	C369.019867,982.223572 369.019867,950.866699 369.019867,918.537109 
	C370.117493,919.684509 370.596100,920.068481 370.931091,920.551941 
	C381.339691,935.575012 391.728241,950.611877 402.132660,965.637817 
	C412.629517,980.797180 423.139893,995.947205 434.152924,1011.709839 
M806.000000,972.500000 
	C806.000000,954.834656 806.000000,937.169373 806.000000,918.467651 
	C816.169617,933.144897 825.629211,946.809082 835.101013,960.464661 
	C847.090637,977.750244 859.069946,995.043213 871.144104,1012.269653 
	C871.761963,1013.151245 873.210510,1013.870361 874.307312,1013.921936 
	C878.414490,1014.115173 882.536194,1013.999207 886.771973,1013.999207 
	C886.771973,975.813843 886.771973,938.088867 886.771973,900.240479 
	C882.806641,900.240479 879.072754,900.240479 874.760681,900.240479 
	C874.760681,930.945801 874.760681,961.415039 874.760681,992.615051 
	C873.530884,991.715698 872.902405,991.449829 872.560364,990.976868 
	C867.437561,983.890686 862.289001,976.821655 857.270325,969.661804 
	C841.482971,947.138733 825.759705,924.570740 809.948975,902.064148 
	C809.306519,901.149475 808.057739,900.147827 807.044678,900.095642 
	C802.785767,899.876404 798.509033,900.002991 794.279053,900.002991 
	C794.279053,938.291626 794.279053,976.017090 794.279053,1013.706787 
	C798.300476,1013.706787 802.036316,1013.706787 806.000000,1013.706787 
	C806.000000,1000.109985 806.000000,986.804993 806.000000,972.500000 
M575.579895,992.931702 
	C576.812500,991.044312 578.152344,989.217590 579.259888,987.259460 
	C585.529297,976.176086 588.437073,964.542297 587.153931,951.566956 
	C585.425415,934.087891 577.901794,920.527832 563.344788,910.726685 
	C553.941284,904.395325 543.714600,900.955444 532.346558,900.972229 
	C518.336548,900.992981 504.326569,900.977173 490.232849,900.977173 
	C490.232849,938.224426 490.232849,975.932373 490.232849,1014.000000 
	C503.244476,1014.000000 516.027161,1014.099060 528.806763,1013.944031 
	C533.047363,1013.892578 537.379456,1013.628967 541.497986,1012.700500 
	C554.615112,1009.743469 566.114197,1003.764893 575.579895,992.931702 
M1798.000000,995.499512 
	C1798.000000,1001.595459 1798.000000,1007.691345 1798.000000,1014.000000 
	C1805.239990,1014.000000 1811.893799,1014.242920 1818.522949,1013.943176 
	C1828.522949,1013.490967 1838.806274,1013.952332 1848.432007,1011.715027 
	C1867.216309,1007.349121 1878.608521,990.438660 1871.931519,970.516113 
	C1868.689209,960.842102 1860.935791,955.977844 1850.975220,953.591553 
	C1853.197266,952.520325 1854.990723,951.829163 1856.608154,950.847778 
	C1866.581909,944.795593 1869.029175,935.275452 1867.906860,924.598206 
	C1866.971436,915.702087 1862.440918,908.513611 1853.988281,905.179565 
	C1848.244751,902.914124 1841.894897,901.422546 1835.740845,901.120422 
	C1823.263428,900.507935 1810.734619,900.937622 1798.000000,900.937622 
	C1798.000000,931.902588 1798.000000,963.201111 1798.000000,995.499512 
M82.000000,939.500000 
	C82.000000,964.243225 82.000000,988.986511 82.000000,1013.000366 
	C97.599907,1013.000366 112.667938,1013.570068 127.674278,1012.851562 
	C145.166885,1012.013916 159.040527,1003.783997 169.175552,989.413391 
	C178.756073,975.829224 181.190598,960.642395 177.871918,944.762573 
	C173.873184,925.628662 162.391159,912.034180 144.037247,905.163086 
	C137.345352,902.657959 129.899094,901.433655 122.728348,901.100037 
	C109.255112,900.473145 95.731941,900.919373 82.000000,900.919373 
	C82.000000,913.233704 82.000000,925.866821 82.000000,939.500000 
M2053.000000,1010.338867 
	C2052.608887,1012.959961 2053.318359,1014.332397 2056.384521,1014.060181 
	C2059.470947,1013.786194 2062.601074,1013.999817 2066.115479,1013.999817 
	C2066.115479,996.417480 2066.115479,979.346985 2066.115479,962.000061 
	C2071.174561,962.000061 2075.832764,961.748779 2080.438232,962.131042 
	C2082.138916,962.272217 2084.379883,963.499695 2085.246826,964.920044 
	C2094.658203,980.341003 2103.823730,995.911621 2113.138428,1011.392151 
	C2113.782227,1012.462036 2115.033936,1013.810791 2116.079834,1013.880798 
	C2120.317627,1014.164429 2124.585205,1013.998596 2130.109619,1013.998596 
	C2119.037109,995.539673 2108.542969,978.045288 2097.963379,960.408386 
	C2113.334229,958.161011 2123.299316,951.339111 2125.797363,934.942383 
	C2127.291260,925.137085 2124.167480,910.468323 2111.159668,905.178223 
	C2105.593262,902.914429 2099.384521,901.427856 2093.397949,901.163818 
	C2080.066895,900.575745 2066.691895,900.980225 2053.000000,900.980225 
	C2053.000000,936.788208 2053.000000,973.079163 2053.000000,1010.338867 
M1675.956421,980.358826 
	C1671.123901,991.356201 1666.291382,1002.353577 1661.174072,1013.998962 
	C1666.028687,1013.998962 1669.854248,1014.162720 1673.650146,1013.900085 
	C1674.801392,1013.820435 1676.457642,1012.811707 1676.885742,1011.804810 
	C1680.405396,1003.525391 1683.615601,995.114502 1687.129639,986.832520 
	C1687.633545,985.644775 1689.252319,984.131226 1690.367676,984.120789 
	C1708.492310,983.951721 1726.618896,984.001160 1744.684448,984.001160 
	C1748.988037,994.210083 1753.163574,1004.115173 1757.267944,1013.851318 
	C1762.011230,1013.851318 1766.317871,1013.851318 1771.958252,1013.851318 
	C1770.177246,1009.997986 1768.609375,1006.783752 1767.189697,1003.505371 
	C1758.818848,984.174011 1750.460693,964.837036 1742.141968,945.483154 
	C1736.047485,931.304199 1730.048828,917.083923 1723.908325,902.925049 
	C1723.412720,901.782043 1722.284424,900.336670 1721.219727,900.108887 
	C1713.012329,898.353210 1709.850098,900.280396 1707.002319,908.339172 
	C1706.735962,909.093079 1706.386597,909.818054 1706.067139,910.552795 
	C1696.061401,933.561279 1686.054932,956.569519 1675.956421,980.358826 
M992.482422,941.986145 
	C986.446594,928.011353 980.410828,914.036560 974.410889,900.144775 
	C970.252686,900.144775 966.277100,900.144775 962.516907,900.144775 
	C946.070557,937.990234 929.710388,975.637390 913.103027,1013.853394 
	C918.806213,1013.853394 923.267639,1013.853394 927.734802,1013.853394 
	C931.982056,1003.837585 936.180298,993.937500 940.394348,984.000061 
	C958.287842,984.000061 975.932129,984.062378 993.574951,983.932617 
	C996.207397,983.913330 997.150635,984.973572 998.044189,987.208679 
	C1001.622437,996.159668 1005.421021,1005.022522 1009.091492,1013.806335 
	C1013.888916,1013.806335 1018.343079,1013.806335 1023.672119,1013.806335 
	C1013.295654,989.757690 1003.125061,966.186157 992.482422,941.986145 
M621.000000,1003.477783 
	C621.000000,1006.915527 621.000000,1010.353271 621.000000,1013.692505 
	C645.661438,1013.692505 669.732239,1013.692505 693.675659,1013.692505 
	C693.675659,1009.641907 693.675659,1005.905090 693.675659,1001.751465 
	C673.615356,1001.751465 653.877258,1001.751465 634.354248,1001.751465 
	C634.354248,987.915833 634.354248,974.511719 634.354248,960.691895 
	C652.447571,960.691895 670.188416,960.691895 687.794739,960.691895 
	C687.794739,956.643494 687.794739,953.021790 687.794739,948.983765 
	C669.855469,948.983765 652.115662,948.983765 634.237122,948.983765 
	C634.237122,936.487000 634.237122,924.418762 634.237122,911.924866 
	C653.542969,911.924866 672.616516,911.924866 691.734131,911.924866 
	C691.734131,907.756836 691.734131,904.020935 691.734131,900.281494 
	C668.065002,900.281494 644.662903,900.281494 621.000000,900.281494 
	C621.000000,934.535645 621.000000,968.509033 621.000000,1003.477783 
M1206.500000,912.000000 
	C1218.598267,912.000000 1230.696411,912.000000 1242.683350,912.000000 
	C1242.683350,907.656372 1242.683350,903.919556 1242.683350,900.331299 
	C1219.296509,900.331299 1196.227661,900.331299 1173.345825,900.331299 
	C1173.345825,938.398499 1173.345825,976.133667 1173.345825,1013.642395 
	C1197.431641,1013.642395 1221.170532,1013.642395 1244.803589,1013.642395 
	C1244.803589,1009.662048 1244.803589,1006.040405 1244.803589,1002.001282 
	C1224.873169,1002.001282 1205.134033,1002.001282 1185.228027,1002.001282 
	C1185.228027,988.171997 1185.228027,974.770569 1185.228027,960.942871 
	C1203.524292,960.942871 1221.598022,960.942871 1239.743408,960.942871 
	C1239.743408,956.775940 1239.743408,953.040466 1239.743408,948.883911 
	C1221.418823,948.883911 1203.345947,948.883911 1185.287354,948.883911 
	C1185.287354,936.384460 1185.287354,924.315552 1185.287354,912.000000 
	C1192.214600,912.000000 1198.857422,912.000000 1206.500000,912.000000 
M1335.000000,924.500000 
	C1335.000000,954.260620 1335.000000,984.021240 1335.000000,1013.685608 
	C1359.342651,1013.685608 1383.080200,1013.685608 1406.668579,1013.685608 
	C1406.668579,1009.628174 1406.668579,1005.891296 1406.668579,1001.737854 
	C1386.601196,1001.737854 1366.863037,1001.737854 1347.360840,1001.737854 
	C1347.360840,987.902100 1347.360840,974.497864 1347.360840,960.853271 
	C1365.340210,960.853271 1382.959473,960.853271 1400.787598,960.853271 
	C1400.787598,956.867920 1400.787598,953.133301 1400.787598,948.971069 
	C1382.842407,948.971069 1365.102417,948.971069 1347.243408,948.971069 
	C1347.243408,936.474121 1347.243408,924.405823 1347.243408,911.912598 
	C1366.555664,911.912598 1385.629150,911.912598 1404.728027,911.912598 
	C1404.728027,907.744263 1404.728027,904.008118 1404.728027,900.287354 
	C1381.386108,900.287354 1358.317505,900.287354 1335.000000,900.287354 
	C1335.000000,908.214844 1335.000000,915.857422 1335.000000,924.500000 
M1475.499634,1014.000000 
	C1481.930176,1014.000000 1488.360718,1014.000000 1494.691040,1014.000000 
	C1494.691040,1009.667419 1494.691040,1005.932251 1494.691040,1001.794556 
	C1476.988403,1001.794556 1459.591431,1001.794556 1441.803711,1001.794556 
	C1441.803711,967.658020 1441.803711,933.936096 1441.803711,900.312012 
	C1437.661621,900.312012 1433.926392,900.312012 1430.298340,900.312012 
	C1430.298340,938.340759 1430.298340,976.056763 1430.298340,1014.000000 
	C1445.230347,1014.000000 1459.865234,1014.000000 1475.499634,1014.000000 
z"/>
<path fill="#53100C" opacity="1.000000" stroke="none" 
	d="
M529.533142,0.999999 
	C531.317627,1.333329 532.633545,1.949635 533.953125,1.957716 
	C555.110474,2.087286 576.049744,4.510436 596.082642,11.217880 
	C617.187866,18.284355 636.835266,28.519550 651.907532,45.541275 
	C663.516479,58.651817 670.844910,73.994331 672.961243,91.536903 
	C673.863281,99.013885 675.080444,106.565041 674.859314,114.044197 
	C674.207458,136.095886 668.361511,156.406418 653.853699,173.802551 
	C645.121582,184.273178 634.522156,191.730606 621.476135,194.925110 
	C607.374023,198.378204 594.104309,195.446487 582.233521,186.758438 
	C573.077698,180.057510 568.830994,170.408112 566.124634,159.941971 
	C565.162476,156.221039 566.329529,152.768707 570.473938,151.158737 
	C578.264160,148.132507 585.947449,144.796234 593.849670,142.100418 
	C607.945496,137.291672 615.543335,126.130798 621.908386,113.867210 
	C626.383545,105.244934 628.291138,95.822433 627.953796,86.101273 
	C627.587524,75.545563 625.104431,65.340012 618.362488,57.109299 
	C611.950806,49.281799 602.559326,45.467312 593.224182,42.054657 
	C573.610413,34.884399 553.113708,35.032532 532.819031,36.256218 
	C516.059387,37.266766 499.414978,40.030109 483.345612,45.811474 
	C463.845276,52.827202 445.813934,62.534992 429.638367,75.191048 
	C415.042786,86.610901 400.912872,98.831085 387.873596,111.983231 
	C371.319946,128.680161 356.064606,146.672562 342.976074,166.331085 
	C331.061951,184.225693 318.535645,201.764145 307.565491,220.223999 
	C290.105011,249.605347 273.691833,279.684143 264.692719,312.954559 
	C259.683502,331.474091 255.795486,350.325378 252.102325,369.164429 
	C248.289124,388.615631 247.207901,408.415771 248.121170,428.179382 
	C249.286270,453.392426 253.076157,478.162537 263.810059,501.422363 
	C276.069580,527.988220 296.238098,544.189209 325.050995,550.131409 
	C339.982239,553.210815 354.973969,555.051636 370.061096,553.817261 
	C384.727509,552.617188 398.880096,548.404724 412.532593,542.808167 
	C431.873962,534.879456 449.382172,523.710510 465.024445,510.101776 
	C476.788910,499.866699 487.284851,488.105530 497.831024,476.554077 
	C513.998474,458.845520 526.348999,438.459229 537.228882,417.221832 
	C545.848083,400.397339 552.323364,382.704346 555.895508,364.075897 
	C556.694214,359.910828 557.053955,355.571686 556.914368,351.335815 
	C556.648376,343.267517 558.995117,335.978790 562.545288,328.947266 
	C564.894775,324.293945 568.767334,322.159607 573.963196,321.974762 
	C590.808838,321.375244 607.651428,320.686981 624.493347,319.987976 
	C630.918518,319.721283 637.374390,319.645416 643.751160,318.914398 
	C650.484802,318.142487 653.137207,322.605988 652.841980,328.140289 
	C652.445129,335.577850 651.731323,343.176300 649.761902,350.322083 
	C640.183289,385.077057 630.248962,419.735504 620.228271,454.366669 
	C611.731384,483.731506 602.502075,512.891052 594.411987,542.365112 
	C586.446106,571.387024 576.321289,599.488281 561.941772,625.933777 
	C552.806763,642.733948 543.071228,659.207031 530.065674,673.446655 
	C519.614990,684.889038 509.722839,696.908569 498.603546,707.659119 
	C475.599915,729.899902 451.490479,750.958618 421.990479,764.395325 
	C400.435150,774.213257 378.019806,781.658081 354.900330,787.126343 
	C337.843201,791.160767 320.559357,792.235718 303.398865,790.714905 
	C283.634430,788.963379 265.910217,781.167542 251.389206,766.965637 
	C244.195084,759.929626 237.743149,752.558777 234.331940,742.839722 
	C229.428482,728.868958 229.463348,715.009644 235.293823,701.442932 
	C241.290680,687.489014 250.473709,676.558411 265.639771,671.764160 
	C272.867249,669.479431 280.114685,669.076050 287.138092,671.744690 
	C299.111725,676.294128 302.019348,689.276001 294.292725,701.262634 
	C289.516663,708.671875 285.723114,716.465454 285.961365,725.687622 
	C286.190735,734.564453 292.280518,743.734253 300.614868,746.852295 
	C321.959320,754.837708 342.224396,751.090698 361.251068,740.028442 
	C372.679108,733.384216 384.012848,726.206909 394.111084,717.744324 
	C405.594788,708.120789 416.450470,697.470337 426.115784,686.029846 
	C436.435913,673.814270 445.541962,660.477173 454.284607,647.048096 
	C466.185944,628.767212 475.302979,608.939819 482.873138,588.528931 
	C489.859772,569.691467 495.823273,550.474304 502.211273,531.415710 
	C502.634125,530.154053 502.834229,528.817688 503.435028,526.242615 
	C485.452728,544.085999 465.149475,556.398071 444.803406,568.473267 
	C422.072998,581.963501 398.642761,594.148376 373.324860,602.375977 
	C356.977661,607.688416 340.333069,611.696899 323.359741,613.849670 
	C300.889618,616.699646 278.728729,614.443054 256.872650,608.121033 
	C236.142761,602.124817 218.095657,591.666748 201.492676,578.108459 
	C179.763641,560.364258 164.855850,538.110596 156.947052,511.368835 
	C153.752899,500.568512 152.189224,489.278595 150.013428,478.186035 
	C145.634247,455.860504 145.361023,433.241913 146.159073,410.655670 
	C146.596451,398.277252 148.593155,385.949127 149.995453,373.610687 
	C152.286346,353.453949 157.101593,333.799286 164.168427,314.886719 
	C170.975464,296.669434 179.160538,278.956390 187.021774,261.146118 
	C198.791580,234.480637 212.908508,209.088577 230.013931,185.471222 
	C238.025894,174.409149 246.339905,163.479553 255.428848,153.304382 
	C268.555511,138.608978 282.143890,124.280540 296.194458,110.465919 
	C320.702057,86.369812 347.002289,64.311378 376.399323,46.378456 
	C400.648926,31.585587 425.942871,18.570486 453.508270,11.057361 
	C466.880707,7.412622 480.718903,5.379910 494.427765,3.109545 
	C500.733978,2.065146 507.236145,2.204229 513.824707,1.403333 
	C519.022095,1.000000 524.044189,1.000000 529.533142,0.999999 
z"/>
<path fill="#53100C" opacity="1.000000" stroke="none" 
	d="
M253.460648,1017.000000 
	C248.964691,1015.340759 244.916412,1013.712280 240.896225,1012.017212 
	C220.630920,1003.472656 209.303345,988.180359 205.929550,966.518860 
	C203.826019,953.013000 205.626663,940.307190 211.983490,928.265808 
	C220.466995,912.195923 233.487671,902.123840 251.540604,899.013550 
	C266.209625,896.486267 280.540833,897.299805 293.698181,905.011475 
	C309.401642,914.215454 319.266663,927.555542 322.062408,945.907227 
	C323.923096,958.120972 323.163208,969.854065 318.312317,981.351074 
	C310.635834,999.545227 297.103943,1010.602356 278.025543,1014.922607 
	C273.911224,1015.854309 269.573822,1015.800903 265.169586,1016.600647 
	C261.307098,1017.000000 257.614197,1017.000000 253.460648,1017.000000 
M309.000519,964.473877 
	C311.617401,952.920227 309.135010,941.826782 303.355713,932.164856 
	C292.519562,914.048584 276.050568,906.227966 254.912094,910.065247 
	C242.089615,912.392944 232.087479,919.430847 225.768051,930.812134 
	C216.538254,947.434998 216.163773,964.355103 224.857712,981.570374 
	C234.175568,1000.021118 256.763794,1009.151123 276.244141,1003.337708 
	C295.306274,997.649170 305.543549,984.455200 309.000519,964.473877 
z"/>
<path fill="#53100C" opacity="1.000000" stroke="none" 
	d="
M1949.463135,1017.000000 
	C1948.515869,1016.338196 1948.122192,1015.194458 1947.534546,1015.084167 
	C1925.367432,1010.926208 1906.742432,993.090698 1902.908691,969.051147 
	C1900.211914,952.139893 1902.145996,936.096069 1912.117432,921.971008 
	C1922.837646,906.785706 1937.798950,898.606689 1956.644287,897.977417 
	C1966.862183,897.636230 1976.747437,898.448425 1986.248047,902.900940 
	C1996.267822,907.596741 2004.142700,914.388489 2010.246582,923.587463 
	C2016.635986,933.216431 2019.666870,944.092407 2019.752808,955.171631 
	C2019.924072,977.242249 2011.883179,995.767578 1992.357544,1007.957031 
	C1983.176514,1013.688538 1973.089722,1016.173767 1962.167725,1016.601929 
	C1957.975464,1017.000000 1953.950928,1017.000000 1949.463135,1017.000000 
M1999.026855,983.458618 
	C2012.391846,962.541809 2006.695435,928.902771 1984.479370,915.877930 
	C1964.757202,904.315186 1943.203735,907.439270 1928.667236,922.283325 
	C1917.156128,934.037903 1912.774170,949.074646 1915.939087,965.872253 
	C1918.917236,981.678162 1926.629761,993.845764 1941.469238,1000.781067 
	C1962.273315,1010.504089 1987.612549,1003.231995 1999.026855,983.458618 
z"/>
<path fill="#53100C" opacity="1.000000" stroke="none" 
	d="
M1595.458008,1017.000000 
	C1594.517090,1016.337708 1594.127441,1015.200256 1593.537354,1015.084717 
	C1585.091919,1013.429993 1578.191528,1009.231873 1572.360718,1002.966736 
	C1570.153564,1000.595276 1568.580200,998.955872 1572.594482,996.768494 
	C1575.406616,995.236145 1577.801758,992.938660 1580.455444,990.928223 
	C1588.486450,1002.702942 1599.323242,1007.537903 1613.035278,1003.899780 
	C1623.328369,1001.168701 1629.258423,994.916992 1629.668823,984.813416 
	C1629.943604,978.048645 1626.625122,971.587769 1619.310303,968.763367 
	C1610.777222,965.468750 1602.211548,962.258728 1593.662231,959.006287 
	C1586.134399,956.142456 1579.189697,952.265076 1575.440308,944.823730 
	C1567.124756,928.320007 1572.869507,905.306030 1595.738525,899.357483 
	C1608.307861,896.088013 1621.402344,896.344604 1632.946655,904.071167 
	C1636.035889,906.138733 1638.530273,909.094849 1641.457275,911.790039 
	C1637.774902,914.741211 1634.515381,917.353577 1631.431030,919.825439 
	C1627.290039,916.855164 1623.486816,913.422791 1619.091187,911.122620 
	C1610.260864,906.501892 1595.581909,909.419250 1589.912231,916.670227 
	C1582.862061,925.686584 1583.604004,939.059692 1596.221313,944.944946 
	C1602.167480,947.718506 1608.571289,949.494507 1614.623657,952.061951 
	C1620.367310,954.498413 1626.014648,957.203064 1631.542114,960.099609 
	C1642.504395,965.844238 1644.999878,981.886658 1641.586182,992.999390 
	C1637.475830,1006.380066 1622.842285,1015.542053 1610.305420,1016.002930 
	C1608.978760,1016.051636 1607.653320,1016.139771 1606.163696,1016.604797 
	C1602.638672,1017.000000 1599.277466,1017.000000 1595.458008,1017.000000 
z"/>
<path fill="#53100C" opacity="1.000000" stroke="none" 
	d="
M1089.463135,1017.000000 
	C1088.515381,1016.338135 1088.115601,1015.185730 1087.534058,1015.085266 
	C1065.010864,1011.193726 1046.242065,991.439331 1042.863159,968.512390 
	C1040.298706,951.112366 1042.646851,934.888367 1053.191772,920.839417 
	C1061.890381,909.250366 1073.454468,901.202209 1088.393799,898.951965 
	C1101.235718,897.017578 1113.873169,896.983215 1125.561523,903.342896 
	C1131.277710,906.453125 1137.284180,909.717896 1140.182495,916.376160 
	C1136.730591,918.977234 1133.488403,921.420288 1130.074585,923.992554 
	C1127.241699,921.414856 1124.554688,918.369568 1121.314331,916.122437 
	C1104.844238,904.700195 1083.986450,908.176697 1070.532349,920.841125 
	C1059.562134,931.167480 1054.813232,943.941040 1055.121704,958.471069 
	C1055.575806,979.867798 1069.347168,1000.213562 1092.867310,1004.171753 
	C1109.862183,1007.031738 1122.830322,1001.664062 1132.918579,987.795471 
	C1136.239746,990.235718 1139.489136,992.623108 1142.705688,994.986511 
	C1138.102661,1004.531799 1122.707397,1016.381226 1102.167114,1016.602356 
	C1097.975464,1017.000000 1093.950928,1017.000000 1089.463135,1017.000000 
z"/>
<path fill="#53100C" opacity="1.000000" stroke="none" 
	d="
M1.000001,946.333313 
	C6.989851,945.323425 13.017309,944.861206 18.943468,943.821533 
	C20.452385,943.556763 22.061625,941.690063 22.897333,940.161621 
	C25.604698,935.209900 27.974028,930.073425 30.974174,923.993530 
	C34.274181,931.012512 37.231621,937.302856 40.220840,943.660767 
	C46.974689,944.824280 53.775009,945.995789 61.608688,947.345337 
	C57.348854,951.074524 53.704182,954.317383 50.000648,957.491577 
	C46.795918,960.238281 45.033962,962.953735 46.678787,967.713745 
	C48.171104,972.032532 48.058598,976.905823 48.766724,982.414368 
	C46.362461,981.399109 44.234341,980.567261 42.173157,979.593750 
	C41.451603,979.252991 40.955383,978.459717 40.253269,978.049255 
	C34.002552,974.395203 27.868471,971.700684 21.044649,977.307434 
	C18.379917,979.496948 14.797288,980.569275 11.192554,982.370361 
	C12.261348,976.041260 13.386127,970.242188 14.131315,964.394775 
	C14.331079,962.827271 13.864685,960.675537 12.858549,959.543823 
	C9.324632,955.568787 5.422207,951.921387 1.329842,948.074829 
	C1.000000,947.555542 1.000000,947.111084 1.000001,946.333313 
z"/>
<path fill="#53100C" opacity="1.000000" stroke="none" 
	d="
M2236.000000,949.750000 
	C2231.461914,954.359253 2226.394043,958.317261 2222.639893,963.270752 
	C2221.086670,965.320129 2222.092041,969.526794 2222.396240,972.708191 
	C2222.746826,976.376404 2223.607666,979.995789 2224.458984,984.843750 
	C2218.645996,981.713806 2213.808594,979.275208 2209.149414,976.533936 
	C2206.645508,975.060730 2204.584717,974.954895 2201.989990,976.403442 
	C2197.201904,979.076599 2192.200684,981.367981 2186.626953,984.148254 
	C2187.697266,978.289490 2188.512695,973.017944 2189.664551,967.821106 
	C2190.365479,964.659546 2190.034668,962.196838 2187.485840,959.879211 
	C2183.575928,956.323975 2179.957520,952.447632 2175.543213,948.035400 
	C2181.247314,947.285706 2186.126465,946.283630 2191.033936,946.116638 
	C2194.781738,945.989075 2196.840576,944.729736 2198.427490,941.284912 
	C2200.694092,936.363403 2203.654785,931.761658 2206.649902,926.435242 
	C2208.930908,931.206909 2211.498291,935.235474 2212.799561,939.638184 
	C2214.446289,945.207886 2218.336670,946.443237 2223.203613,947.035156 
	C2227.208496,947.522278 2231.174072,948.332397 2235.578613,948.999756 
	C2236.000000,949.000000 2236.000000,949.500000 2236.000000,949.750000 
z"/>
<path fill="#53100C" opacity="1.000000" stroke="none" 
	d="
M1766.344116,244.247055 
	C1784.377808,231.275925 1804.148804,222.725952 1824.970825,216.688156 
	C1832.394287,214.535568 1840.302368,213.741089 1848.053101,213.109955 
	C1857.770142,212.318680 1867.573364,211.768661 1877.302856,212.121735 
	C1895.556396,212.784149 1913.119019,216.875336 1927.675171,228.477814 
	C1938.473999,237.085220 1946.436890,248.176193 1952.185425,261.035400 
	C1958.511597,275.186523 1961.873413,290.040802 1964.891479,305.046387 
	C1965.727051,309.201050 1965.987183,313.541595 1965.943481,317.791016 
	C1965.736816,337.881531 1965.362427,357.970612 1964.955933,378.058350 
	C1964.913818,380.133362 1964.261719,382.195984 1963.720947,385.226471 
	C1967.442871,384.624023 1970.784668,384.406586 1973.937500,383.518585 
	C1990.334717,378.900421 2005.136963,370.841156 2018.120728,360.104065 
	C2032.833130,347.937469 2046.787598,334.821808 2060.665771,321.690063 
	C2071.137451,311.781891 2078.405762,299.330780 2085.999023,287.199371 
	C2088.858887,282.630402 2092.891602,281.313843 2097.995605,282.972504 
	C2104.627930,285.127930 2110.594727,288.203278 2112.981934,295.359711 
	C2113.584473,297.165588 2113.901855,299.674042 2113.116211,301.240936 
	C2105.532959,316.366180 2098.533691,331.881622 2089.682861,346.247498 
	C2080.257812,361.545288 2067.330078,374.115662 2053.714600,385.952820 
	C2039.157593,398.608673 2023.121216,408.936188 2005.938232,417.392273 
	C1992.066406,424.218994 1977.703613,430.052673 1962.128540,432.137909 
	C1960.955200,432.295013 1959.412476,434.237610 1959.099243,435.594330 
	C1954.046143,457.486359 1946.818604,478.564148 1937.107666,498.871765 
	C1928.059326,517.793884 1917.160522,535.386841 1903.942505,551.704529 
	C1883.785034,576.589172 1859.852905,596.671631 1830.920898,610.446899 
	C1817.906006,616.643555 1804.062744,620.794922 1789.604736,621.904297 
	C1778.889648,622.726440 1768.011475,623.733704 1757.374146,622.780884 
	C1734.249146,620.709473 1712.323853,615.000916 1693.773682,599.470459 
	C1673.507690,582.503845 1659.883423,561.142883 1649.433716,536.994141 
	C1634.967285,557.676758 1616.353027,574.440430 1598.422729,591.736877 
	C1587.826538,601.958557 1574.874878,609.373840 1561.144897,614.953613 
	C1551.327515,618.943359 1541.432251,622.901489 1531.275513,625.855347 
	C1518.406860,629.597900 1505.199951,629.645630 1491.802002,628.164307 
	C1477.141479,626.543335 1464.505127,620.854553 1452.799683,612.334167 
	C1439.057739,602.331482 1429.950928,588.997925 1426.194336,572.626404 
	C1423.116211,559.211670 1421.656250,545.425781 1419.629517,532.746948 
	C1416.353394,536.888611 1412.261963,542.436096 1407.781616,547.649292 
	C1397.308105,559.835938 1383.710571,568.096252 1370.593628,576.996643 
	C1356.148926,586.798096 1342.109619,597.221436 1326.084595,604.438416 
	C1306.652588,613.189636 1286.748413,620.110229 1265.665649,624.248413 
	C1238.218994,629.635681 1210.665649,632.263550 1182.844604,630.856262 
	C1155.064697,629.451050 1128.964111,621.839294 1106.075439,605.409241 
	C1100.750122,601.586731 1095.710938,597.001465 1091.625488,591.898193 
	C1084.904785,583.502869 1085.243164,570.083191 1092.126099,560.566162 
	C1097.535034,553.087158 1109.196411,551.389282 1117.689087,557.166382 
	C1122.106689,560.171387 1125.250732,565.129456 1128.752319,569.384399 
	C1138.647461,581.408508 1151.299194,588.106689 1166.828491,588.960938 
	C1187.281372,590.086060 1204.468018,581.759277 1219.956543,569.449524 
	C1237.775146,555.287842 1246.604858,535.587158 1251.827515,514.196167 
	C1254.167969,504.610229 1254.866577,494.596069 1255.929443,484.735168 
	C1256.635254,478.186523 1256.779663,471.568481 1256.973755,464.975586 
	C1257.269165,454.947571 1255.088989,445.355774 1252.452515,435.689667 
	C1246.736694,414.733856 1236.513062,396.076324 1225.474609,377.602966 
	C1219.904907,368.282135 1216.226807,357.831085 1211.728638,347.968323 
	C1210.868774,350.098206 1209.920776,353.221924 1208.415161,356.048737 
	C1199.538208,372.714569 1190.868896,389.504639 1181.483521,405.882599 
	C1169.615479,426.593079 1157.293945,447.049713 1144.859131,467.427338 
	C1134.261719,484.793976 1123.264038,501.917236 1112.370605,519.101929 
	C1106.662842,528.106018 1100.878906,537.064636 1094.950684,545.924316 
	C1093.383423,548.266724 1091.170654,550.181580 1089.225220,552.265625 
	C1084.260986,557.583374 1079.303711,562.907959 1074.301758,568.190125 
	C1062.873291,580.258606 1049.993896,590.577087 1035.988159,599.471619 
	C1022.914307,607.774353 1010.047302,616.490662 996.470459,623.889343 
	C982.490356,631.507507 967.165222,635.323303 951.214172,637.171265 
	C936.964905,638.821960 923.072876,638.059753 909.504272,633.893799 
	C893.449585,628.964417 881.200745,618.818909 872.768494,604.282288 
	C866.186035,592.934570 863.117981,580.464294 861.801575,568.405823 
	C852.920410,579.322021 844.227966,591.305908 834.197571,602.039490 
	C817.933044,619.444397 797.455078,630.202698 774.172302,634.802551 
	C763.314941,636.947571 751.986145,638.246887 740.972900,637.735779 
	C719.164062,636.723511 699.649536,629.106323 684.862549,612.247070 
	C674.832642,600.811584 668.800903,587.274902 667.088562,572.132629 
	C665.944519,562.015991 665.341064,551.809875 665.077881,541.628723 
	C664.704102,527.175720 667.230347,512.988586 672.051514,499.462311 
	C677.656982,483.735565 684.003723,468.244720 690.670471,452.930847 
	C702.046692,426.799622 713.947815,400.897217 725.582520,374.878174 
	C736.820312,349.746826 747.921265,324.553894 759.248047,299.462860 
	C763.220215,290.663910 767.746155,282.116364 771.893188,273.394135 
	C773.445251,270.129852 775.971863,269.028381 779.355225,268.985840 
	C803.778198,268.678925 828.200684,268.336456 852.623108,267.991455 
	C853.942017,267.972839 855.375977,268.138367 856.556641,267.691071 
	C861.260071,265.909119 865.442444,267.381775 868.692566,270.418854 
	C872.149963,273.649780 871.626465,278.138855 870.200989,282.333191 
	C857.675903,319.186340 845.123474,356.030151 832.578308,392.876465 
	C825.060303,414.957611 817.458801,437.010864 810.053467,459.129761 
	C805.765503,471.937256 800.968018,484.655945 797.880310,497.763367 
	C793.758301,515.261047 787.802856,532.627258 789.113159,550.980225 
	C789.767395,560.143738 791.678040,569.496277 802.025818,572.823486 
	C806.401428,574.230408 811.600586,574.563049 816.124451,573.736511 
	C828.507263,571.474060 840.295837,566.759460 849.249023,557.853821 
	C856.691833,550.450378 862.660889,541.516235 868.954590,533.017151 
	C880.278137,517.725586 885.214111,499.551575 891.515076,481.995514 
	C903.516907,448.555359 915.700317,415.180267 927.656860,381.724030 
	C939.559265,348.419128 951.216187,315.026550 963.111084,281.718964 
	C966.542419,272.110657 972.479919,268.676910 981.447998,268.851868 
	C1004.272705,269.297119 1027.122437,269.399475 1049.939575,268.790070 
	C1058.275757,268.567474 1062.762085,276.344788 1060.299683,283.332672 
	C1050.253174,311.842499 1040.378174,340.413025 1030.512573,368.986237 
	C1019.961914,399.543610 1009.524658,430.140167 998.976440,460.698395 
	C992.365356,479.850647 985.960815,499.084808 978.790710,518.027527 
	C976.350769,524.473633 973.731750,530.492310 973.902649,537.618164 
	C974.231323,551.318359 986.991028,566.291382 1005.071777,562.903992 
	C1016.253784,560.809143 1027.218994,557.345398 1035.908447,549.849915 
	C1044.800293,542.179688 1054.049683,534.301514 1060.738892,524.818848 
	C1079.642090,498.021637 1097.744141,470.629242 1115.335815,442.946381 
	C1129.783203,420.211304 1143.840454,397.150085 1156.573608,373.429871 
	C1165.975830,355.915009 1172.993896,337.117859 1181.024414,318.870087 
	C1186.729492,305.906708 1192.568237,292.995911 1197.957275,279.901123 
	C1205.177612,262.357086 1212.336914,244.774017 1218.877197,226.970703 
	C1221.660156,219.394943 1225.917969,214.647690 1233.857910,213.003464 
	C1255.360474,208.550598 1276.656738,208.807892 1297.738770,215.339218 
	C1300.348755,216.147827 1302.880737,217.461288 1305.543701,217.804413 
	C1320.885864,219.781281 1321.993408,236.536942 1315.133667,246.364960 
	C1311.429565,251.671829 1307.779053,257.016571 1304.143311,262.370728 
	C1296.715942,273.308838 1295.616089,285.874054 1297.330200,298.167633 
	C1300.240234,319.037079 1309.275391,338.157806 1316.952759,357.606720 
	C1325.984497,380.486328 1335.588013,403.163879 1343.780396,426.340271 
	C1347.347046,436.430450 1348.605347,447.477966 1349.828369,458.214172 
	C1350.966919,468.210663 1351.546265,478.434052 1350.829346,488.447083 
	C1348.934570,514.912903 1343.180664,540.341492 1326.444458,561.936584 
	C1323.883423,565.241028 1320.388428,567.821472 1317.855835,571.836731 
	C1325.814209,567.790283 1334.202637,564.402954 1341.636963,559.553223 
	C1355.025146,550.819763 1366.722412,539.997192 1376.934937,527.617920 
	C1383.188477,520.037598 1390.699585,513.259766 1395.724487,504.958405 
	C1402.450806,493.846710 1407.560669,481.718414 1412.903198,469.819489 
	C1417.180420,460.293427 1421.205811,450.604156 1424.511597,440.709564 
	C1426.744629,434.025909 1427.344360,426.814117 1429.008789,419.919189 
	C1432.222656,406.605469 1435.176880,393.199310 1439.125000,380.098602 
	C1448.128174,350.223877 1457.192627,320.350739 1467.151733,290.786774 
	C1473.971558,270.541321 1482.341919,250.818237 1490.016235,230.860489 
	C1495.776611,215.879700 1501.532471,200.897110 1507.642090,185.000000 
	C1505.220581,185.000000 1503.500977,185.000000 1501.781494,185.000000 
	C1471.781494,185.000000 1441.781616,185.002441 1411.781616,184.998215 
	C1404.663086,184.997208 1401.947021,182.437851 1402.050415,175.265961 
	C1402.130859,169.693329 1402.505615,164.111511 1403.050537,158.563324 
	C1403.475098,154.240250 1407.094727,152.693848 1410.566528,152.122177 
	C1417.007446,151.061630 1423.554810,150.630783 1430.064575,150.008316 
	C1444.247925,148.652145 1458.429443,147.272537 1472.623169,146.034622 
	C1481.788086,145.235306 1490.973755,144.674530 1500.149414,143.998108 
	C1504.571533,143.672104 1509.015015,143.500977 1513.405640,142.929291 
	C1516.493042,142.527313 1518.849487,141.482590 1520.176636,137.752380 
	C1526.858276,118.972969 1534.000732,100.357430 1540.993286,81.688812 
	C1543.302612,75.523415 1545.704468,69.392029 1547.957642,63.206314 
	C1549.564575,58.794426 1552.486816,56.903030 1557.270020,56.938972 
	C1576.768921,57.085480 1596.270264,56.896587 1615.769165,57.045189 
	C1625.027222,57.115746 1634.282227,57.645306 1643.537109,58.008060 
	C1650.156616,58.267509 1653.558594,66.007599 1651.473145,70.986267 
	C1646.500854,82.856621 1641.265137,94.616348 1636.196655,106.446815 
	C1632.663208,114.694557 1629.230469,122.985443 1625.271729,132.401047 
	C1633.695190,131.940598 1641.196411,131.528992 1648.697998,131.122375 
	C1649.690674,131.068558 1650.684937,131.045349 1651.678101,130.999222 
	C1666.022949,130.332977 1680.364868,129.586426 1694.713745,129.022720 
	C1706.298218,128.567612 1717.892578,128.375519 1729.479736,127.980705 
	C1734.740112,127.801476 1738.324829,131.156601 1739.758179,135.092941 
	C1743.139648,144.381027 1741.565918,154.403534 1729.692627,157.790192 
	C1720.404663,160.439407 1710.638062,161.479340 1701.041382,162.957352 
	C1691.547729,164.419495 1682.000977,165.537643 1672.476807,166.800751 
	C1664.402222,167.871597 1656.325195,168.923965 1648.251709,170.002625 
	C1638.081665,171.361343 1627.896729,172.625092 1617.758179,174.189285 
	C1615.294678,174.569366 1613.889038,176.164932 1612.779907,179.063004 
	C1604.788940,199.939926 1596.229492,220.598297 1587.971924,241.374344 
	C1577.580200,267.520355 1567.153198,293.653992 1557.016846,319.899323 
	C1544.525391,352.241852 1536.238525,385.879120 1526.957642,419.205597 
	C1521.126953,440.142487 1514.878662,460.975525 1509.632568,482.057922 
	C1506.587891,494.293579 1504.822510,506.885376 1503.124878,519.404175 
	C1502.108398,526.899231 1502.254517,534.560181 1502.018066,542.150879 
	C1501.646973,554.066833 1504.621948,565.171570 1512.239014,574.348999 
	C1517.284058,580.427429 1524.512207,583.565552 1532.422729,585.039001 
	C1550.531372,588.412109 1565.142944,580.875977 1578.373779,569.995605 
	C1600.474487,551.820923 1613.144409,527.132751 1624.138184,501.470306 
	C1630.660522,486.245331 1637.193115,470.998505 1642.872192,455.451447 
	C1645.105347,449.337341 1645.051514,442.381836 1645.993042,435.802948 
	C1649.092407,414.147400 1654.741943,393.176819 1662.635010,372.779114 
	C1671.819824,349.043304 1685.047607,327.607849 1700.878052,307.907623 
	C1711.085327,295.204865 1722.309692,283.213135 1733.973999,271.819763 
	C1744.003296,262.023315 1755.302246,253.526688 1766.344116,244.247055 
M1752.540771,402.969879 
	C1750.176880,412.007172 1747.859375,421.056915 1745.440186,430.079437 
	C1737.770142,458.685028 1731.832397,487.481415 1732.858521,517.400391 
	C1733.276367,529.586487 1734.783081,541.442383 1739.102051,552.763367 
	C1743.896484,565.330200 1751.862061,575.366211 1765.228638,579.572876 
	C1773.543457,582.189575 1782.084351,582.686768 1790.882690,581.139465 
	C1799.258057,579.666504 1807.780640,578.250610 1814.346313,572.873413 
	C1825.325073,563.881897 1836.505127,554.804321 1845.804932,544.189758 
	C1854.787964,533.936768 1862.320557,522.151550 1868.973511,510.195312 
	C1875.119141,499.150818 1879.552002,487.104126 1884.187378,475.282410 
	C1888.629028,463.954468 1892.361450,452.348358 1896.548950,440.457672 
	C1888.247070,441.359833 1880.707031,442.784088 1873.152344,442.866638 
	C1859.905762,443.011383 1846.638672,442.570435 1833.401245,441.936188 
	C1819.200806,441.255798 1806.252441,436.319153 1794.332886,428.776825 
	C1778.956299,419.047089 1766.816772,405.952118 1755.792480,390.273438 
	C1754.717163,394.809113 1753.836670,398.522705 1752.540771,402.969879 
M1803.972046,280.544739 
	C1798.982666,289.015503 1793.629517,297.296356 1789.087158,306.000458 
	C1781.826538,319.913452 1781.975586,334.866119 1784.450562,349.877014 
	C1786.088013,359.808044 1789.677490,369.194244 1797.505005,375.782623 
	C1807.991089,384.608948 1820.748779,388.938751 1834.155029,390.908081 
	C1844.164551,392.378479 1854.278809,393.509888 1864.380371,393.887329 
	C1877.808105,394.389069 1891.268799,394.011108 1904.718750,394.011108 
	C1905.843262,381.785004 1907.273682,370.081207 1907.907104,358.334412 
	C1908.638184,344.780029 1908.893066,331.188660 1908.943481,317.611786 
	C1909.008789,300.021423 1904.630615,283.605194 1893.798950,269.490753 
	C1890.036743,264.588470 1885.806396,258.726166 1880.473511,256.592896 
	C1863.724976,249.893188 1846.631958,250.608063 1830.051514,258.413940 
	C1819.570923,263.347961 1811.536133,271.082733 1803.972046,280.544739 
z"/>
<path fill="#53100C" opacity="1.000000" stroke="none" 
	d="
M551.244385,787.395630 
	C563.782776,779.798401 576.117188,771.837158 588.899048,764.674316 
	C623.033569,745.545593 659.090088,730.777039 696.630554,719.955200 
	C720.302002,713.131409 744.331299,707.428833 768.405273,702.161377 
	C785.971741,698.317749 803.830994,695.716431 821.640686,693.115662 
	C832.481018,691.532654 843.463379,690.843933 854.402954,690.037292 
	C869.987732,688.888184 885.579590,687.471191 901.190063,687.111633 
	C932.096741,686.399597 963.018433,686.093628 993.933655,686.110962 
	C1007.442688,686.118530 1020.958679,687.209290 1034.457642,688.035828 
	C1048.230591,688.879150 1061.996094,689.889160 1075.747559,691.033081 
	C1090.107788,692.227783 1104.456787,693.579041 1118.794067,695.026672 
	C1134.237183,696.585876 1149.671265,698.246277 1165.090332,700.028015 
	C1181.450806,701.918579 1197.802612,703.897888 1214.132935,706.032898 
	C1230.915405,708.227112 1247.651733,710.775574 1264.437500,712.942383 
	C1276.419312,714.489014 1288.465332,715.535400 1300.453735,717.036133 
	C1312.402466,718.531982 1324.297852,720.455811 1336.248901,721.930054 
	C1346.146973,723.151245 1356.102295,723.900574 1366.013550,725.024658 
	C1376.705444,726.237366 1387.364380,727.742065 1398.058594,728.930664 
	C1405.712891,729.781433 1413.398438,730.361267 1421.075806,730.991821 
	C1437.591064,732.348267 1454.108765,733.672729 1470.627930,734.980957 
	C1475.544678,735.370361 1480.466431,735.708191 1485.390503,735.989319 
	C1497.563843,736.684448 1509.742676,737.284912 1521.914062,738.012146 
	C1537.847046,738.964111 1553.768311,740.125305 1569.706787,740.966919 
	C1585.373047,741.794067 1601.049072,742.551758 1616.730713,742.947266 
	C1638.309570,743.491638 1659.899170,743.977783 1681.481567,743.886414 
	C1694.992676,743.829163 1708.519409,742.932800 1722.002075,741.920166 
	C1735.042725,740.940735 1748.098877,739.767273 1761.036987,737.906433 
	C1788.418823,733.968262 1815.598999,729.034180 1842.282715,721.429871 
	C1870.822632,713.296631 1898.564331,703.126953 1925.529297,690.816284 
	C1936.529297,685.794189 1947.307861,680.286804 1958.756104,675.140503 
	C1959.468628,675.388611 1959.612183,675.496399 1959.755615,675.604126 
	C1946.246582,685.393799 1933.249634,696.012329 1919.095459,704.757874 
	C1902.382080,715.084778 1884.997559,724.472107 1867.311768,733.044556 
	C1840.061279,746.253174 1811.760376,756.951416 1782.218872,763.978027 
	C1764.479126,768.197632 1746.726929,772.471191 1728.809570,775.802429 
	C1716.800781,778.035034 1704.512329,778.887329 1692.313232,779.945496 
	C1674.483032,781.492310 1656.622559,782.693542 1638.771484,783.995239 
	C1628.932983,784.712708 1619.095093,785.737671 1609.243652,785.923950 
	C1580.333008,786.470581 1551.416382,786.814331 1522.500854,786.933899 
	C1509.250122,786.988708 1495.991821,786.460571 1482.745605,785.964233 
	C1469.231567,785.458008 1455.721802,784.772278 1442.221680,783.971497 
	C1427.451294,783.095459 1412.687866,782.082153 1397.933350,780.969299 
	C1386.494507,780.106567 1375.059570,779.138611 1363.648926,777.964722 
	C1348.866943,776.443970 1334.118042,774.602234 1319.340820,773.031921 
	C1308.762451,771.907837 1298.138550,771.191833 1287.575562,769.949768 
	C1275.288696,768.505127 1263.057251,766.594971 1250.780762,765.053772 
	C1239.122437,763.590149 1227.418335,762.482788 1215.768555,760.958618 
	C1204.973267,759.546204 1194.232788,757.718140 1183.449463,756.207031 
	C1175.057617,755.031128 1166.625244,754.146179 1158.232178,752.978760 
	C1147.284302,751.456055 1136.370361,749.687073 1125.417480,748.203125 
	C1116.525757,746.998474 1107.593018,746.100098 1098.687988,744.988892 
	C1088.505249,743.718384 1078.342041,742.289673 1068.153442,741.070068 
	C1061.330811,740.253418 1054.478027,739.691101 1047.640503,738.997986 
	C1034.625244,737.678772 1021.614014,736.320068 1008.595398,735.035767 
	C1004.184204,734.600586 999.760010,734.265259 995.334412,734.014771 
	C982.829041,733.307007 970.322998,732.598938 957.811340,732.016663 
	C941.973877,731.279602 926.135864,730.474243 910.288635,730.048523 
	C890.376892,729.513611 870.453308,728.981201 850.539246,729.113037 
	C835.027954,729.215698 819.512207,730.145813 804.019592,731.065857 
	C792.571655,731.745605 781.124512,732.719543 769.737488,734.071716 
	C755.524353,735.759399 741.340881,737.766235 727.204102,740.009766 
	C711.841370,742.447815 696.453674,744.878479 681.247498,748.114014 
	C664.544861,751.667847 647.779297,755.311951 631.504517,760.399170 
	C607.434937,767.923096 583.769592,776.741821 559.946350,785.049988 
	C557.528809,785.893005 555.208435,787.014587 552.258911,787.863037 
	C551.531433,787.611328 551.387939,787.503540 551.244385,787.395630 
z"/>
<path fill="#53100C" opacity="1.000000" stroke="none" 
	d="
M1993.777832,67.499176 
	C1991.184814,87.163704 1979.054321,99.760117 1964.682251,111.115685 
	C1951.787476,121.304153 1936.314331,125.502800 1921.353882,130.878098 
	C1892.011719,141.420746 1862.550415,151.632828 1833.122070,161.934784 
	C1831.334106,162.560699 1829.402466,162.776001 1826.270142,163.458496 
	C1833.088013,155.473846 1839.131714,148.441559 1845.125732,141.367325 
	C1860.705566,122.979973 1877.899658,105.704979 1889.578247,84.454941 
	C1898.709106,67.840370 1905.977539,50.199757 1914.008911,32.984955 
	C1916.390381,27.880690 1918.429199,22.613569 1920.909790,17.560896 
	C1921.474976,16.409887 1923.209351,15.132720 1924.426514,15.111393 
	C1935.250610,14.921725 1946.200684,13.996158 1956.872925,15.282999 
	C1967.655518,16.583157 1976.978394,22.067936 1984.019897,30.884520 
	C1992.554199,41.570507 1995.146362,53.778778 1993.777832,67.499176 
z"/>
<path fill="#53100C" opacity="1.000000" stroke="none" 
	d="
M433.898621,1011.405579 
	C423.139893,995.947205 412.629517,980.797180 402.132660,965.637817 
	C391.728241,950.611877 381.339691,935.575012 370.931091,920.551941 
	C370.596100,920.068481 370.117493,919.684509 369.019867,918.537109 
	C369.019867,950.866699 369.019867,982.223572 369.019867,1013.787903 
	C364.866608,1013.787903 361.132324,1013.787903 357.199036,1013.787903 
	C357.199036,975.963501 357.199036,938.350159 357.199036,900.007080 
	C361.481262,900.007080 365.900970,899.908997 370.309357,900.088501 
	C371.207550,900.125122 372.321686,901.021301 372.899414,901.832397 
	C380.602570,912.646545 388.228638,923.515686 395.872406,934.372131 
	C409.731598,954.056152 423.589905,973.740784 437.829712,993.966553 
	C437.829712,962.501892 437.829712,931.520264 437.829712,900.270752 
	C442.344788,900.270752 446.413361,900.270752 450.743591,900.270752 
	C450.743591,938.039490 450.743591,975.771057 450.743591,1013.999146 
	C446.241394,1013.999146 441.787262,1014.147705 437.356079,1013.894531 
	C436.250336,1013.831360 435.218628,1012.472961 433.898621,1011.405579 
z"/>
<path fill="#53100C" opacity="1.000000" stroke="none" 
	d="
M806.000000,973.000000 
	C806.000000,986.804993 806.000000,1000.109985 806.000000,1013.706787 
	C802.036316,1013.706787 798.300476,1013.706787 794.279053,1013.706787 
	C794.279053,976.017090 794.279053,938.291626 794.279053,900.002991 
	C798.509033,900.002991 802.785767,899.876404 807.044678,900.095642 
	C808.057739,900.147827 809.306519,901.149475 809.948975,902.064148 
	C825.759705,924.570740 841.482971,947.138733 857.270325,969.661804 
	C862.289001,976.821655 867.437561,983.890686 872.560364,990.976868 
	C872.902405,991.449829 873.530884,991.715698 874.760681,992.615051 
	C874.760681,961.415039 874.760681,930.945801 874.760681,900.240479 
	C879.072754,900.240479 882.806641,900.240479 886.771973,900.240479 
	C886.771973,938.088867 886.771973,975.813843 886.771973,1013.999207 
	C882.536194,1013.999207 878.414490,1014.115173 874.307312,1013.921936 
	C873.210510,1013.870361 871.761963,1013.151245 871.144104,1012.269653 
	C859.069946,995.043213 847.090637,977.750244 835.101013,960.464661 
	C825.629211,946.809082 816.169617,933.144897 806.000000,918.467651 
	C806.000000,937.169373 806.000000,954.834656 806.000000,973.000000 
z"/>
<path fill="#53100C" opacity="1.000000" stroke="none" 
	d="
M575.313904,993.179077 
	C566.114197,1003.764893 554.615112,1009.743469 541.497986,1012.700500 
	C537.379456,1013.628967 533.047363,1013.892578 528.806763,1013.944031 
	C516.027161,1014.099060 503.244476,1014.000000 490.232849,1014.000000 
	C490.232849,975.932373 490.232849,938.224426 490.232849,900.977173 
	C504.326569,900.977173 518.336548,900.992981 532.346558,900.972229 
	C543.714600,900.955444 553.941284,904.395325 563.344788,910.726685 
	C577.901794,920.527832 585.425415,934.087891 587.153931,951.566956 
	C588.437073,964.542297 585.529297,976.176086 579.259888,987.259460 
	C578.152344,989.217590 576.812500,991.044312 575.313904,993.179077 
M544.345825,999.003723 
	C562.104919,992.862488 575.097290,975.700745 574.072327,954.969421 
	C573.185120,937.024353 562.072754,922.275513 546.019043,915.856689 
	C531.983887,910.244995 517.606567,912.674133 503.244934,911.949341 
	C503.244934,942.238220 503.244934,971.951538 503.244934,1002.000000 
	C509.609741,1002.000000 515.764954,1002.376709 521.853943,1001.902649 
	C529.107483,1001.337830 536.304321,1000.043213 544.345825,999.003723 
z"/>
<path fill="#53100C" opacity="1.000000" stroke="none" 
	d="
M1798.000000,994.999573 
	C1798.000000,963.201111 1798.000000,931.902588 1798.000000,900.937622 
	C1810.734619,900.937622 1823.263428,900.507935 1835.740845,901.120422 
	C1841.894897,901.422546 1848.244751,902.914124 1853.988281,905.179565 
	C1862.440918,908.513611 1866.971436,915.702087 1867.906860,924.598206 
	C1869.029175,935.275452 1866.581909,944.795593 1856.608154,950.847778 
	C1854.990723,951.829163 1853.197266,952.520325 1850.975220,953.591553 
	C1860.935791,955.977844 1868.689209,960.842102 1871.931519,970.516113 
	C1878.608521,990.438660 1867.216309,1007.349121 1848.432007,1011.715027 
	C1838.806274,1013.952332 1828.522949,1013.490967 1818.522949,1013.943176 
	C1811.893799,1014.242920 1805.239990,1014.000000 1798.000000,1014.000000 
	C1798.000000,1007.691345 1798.000000,1001.595459 1798.000000,994.999573 
M1847.848511,962.332092 
	C1835.481689,958.279358 1822.812744,960.658508 1810.265503,959.945679 
	C1810.265503,974.281372 1810.265503,987.994934 1810.265503,1002.470276 
	C1821.232300,1001.966919 1831.994263,1002.149902 1842.557129,1000.787598 
	C1852.114136,999.555115 1859.316284,992.052979 1859.998901,984.858582 
	C1861.053345,973.746155 1857.479004,966.970337 1847.848511,962.332092 
M1814.628296,949.999939 
	C1822.346680,949.666321 1830.165527,949.994873 1837.760132,948.844299 
	C1849.219971,947.108154 1854.372803,940.196228 1854.745361,930.753418 
	C1855.058350,922.822571 1850.460327,914.718933 1839.376221,913.169617 
	C1829.846313,911.837463 1820.102417,912.036316 1810.002563,911.535889 
	C1810.002563,924.141907 1809.930298,935.889771 1810.159912,947.631714 
	C1810.175659,948.443604 1812.440430,949.211609 1814.628296,949.999939 
z"/>
<path fill="#53100C" opacity="1.000000" stroke="none" 
	d="
M82.000000,939.000000 
	C82.000000,925.866821 82.000000,913.233704 82.000000,900.919373 
	C95.731941,900.919373 109.255112,900.473145 122.728348,901.100037 
	C129.899094,901.433655 137.345352,902.657959 144.037247,905.163086 
	C162.391159,912.034180 173.873184,925.628662 177.871918,944.762573 
	C181.190598,960.642395 178.756073,975.829224 169.175552,989.413391 
	C159.040527,1003.783997 145.166885,1012.013916 127.674278,1012.851562 
	C112.667938,1013.570068 97.599907,1013.000366 82.000000,1013.000366 
	C82.000000,988.986511 82.000000,964.243225 82.000000,939.000000 
M95.721146,1001.993530 
	C103.877678,1001.995667 112.045868,1002.276245 120.188042,1001.935425 
	C132.709732,1001.411133 144.179642,997.484924 152.989670,988.343567 
	C162.789551,978.175110 166.941376,965.936218 165.113281,951.534180 
	C162.642822,932.071411 151.522202,919.436523 133.480896,914.669128 
	C121.027802,911.378418 107.514977,912.098083 94.279610,911.009460 
	C94.108055,913.063416 94.009544,913.693665 94.009361,914.323914 
	C94.000893,942.455688 93.992729,970.587402 94.032265,998.719116 
	C94.033775,999.788635 94.506119,1000.857422 95.721146,1001.993530 
z"/>
<path fill="#53100C" opacity="1.000000" stroke="none" 
	d="
M2053.000000,1009.854492 
	C2053.000000,973.079163 2053.000000,936.788208 2053.000000,900.980225 
	C2066.691895,900.980225 2080.066895,900.575745 2093.397949,901.163818 
	C2099.384521,901.427856 2105.593262,902.914429 2111.159668,905.178223 
	C2124.167480,910.468323 2127.291260,925.137085 2125.797363,934.942383 
	C2123.299316,951.339111 2113.334229,958.161011 2097.963379,960.408386 
	C2108.542969,978.045288 2119.037109,995.539673 2130.109619,1013.998596 
	C2124.585205,1013.998596 2120.317627,1014.164429 2116.079834,1013.880798 
	C2115.033936,1013.810791 2113.782227,1012.462036 2113.138428,1011.392151 
	C2103.823730,995.911621 2094.658203,980.341003 2085.246826,964.920044 
	C2084.379883,963.499695 2082.138916,962.272217 2080.438232,962.131042 
	C2075.832764,961.748779 2071.174561,962.000061 2066.115479,962.000061 
	C2066.115479,979.346985 2066.115479,996.417480 2066.115479,1013.999817 
	C2062.601074,1013.999817 2059.470947,1013.786194 2056.384521,1014.060181 
	C2053.318359,1014.332397 2052.608887,1012.959961 2053.000000,1009.854492 
M2102.199707,946.977539 
	C2110.355713,942.373901 2113.510254,936.686829 2111.861328,926.976135 
	C2110.680420,920.023132 2105.856201,915.109985 2098.876465,914.116516 
	C2088.116699,912.584839 2077.211914,912.070068 2066.252930,911.113831 
	C2066.252930,924.931702 2066.252930,937.307434 2066.252930,950.000000 
	C2071.619141,950.000000 2076.738525,949.952637 2081.856934,950.011719 
	C2088.542236,950.088928 2095.243652,950.365845 2102.199707,946.977539 
z"/>
<path fill="#53100C" opacity="1.000000" stroke="none" 
	d="
M1676.002441,979.968262 
	C1686.054932,956.569519 1696.061401,933.561279 1706.067139,910.552795 
	C1706.386597,909.818054 1706.735962,909.093079 1707.002319,908.339172 
	C1709.850098,900.280396 1713.012329,898.353210 1721.219727,900.108887 
	C1722.284424,900.336670 1723.412720,901.782043 1723.908325,902.925049 
	C1730.048828,917.083923 1736.047485,931.304199 1742.141968,945.483154 
	C1750.460693,964.837036 1758.818848,984.174011 1767.189697,1003.505371 
	C1768.609375,1006.783752 1770.177246,1009.997986 1771.958252,1013.851318 
	C1766.317871,1013.851318 1762.011230,1013.851318 1757.267944,1013.851318 
	C1753.163574,1004.115173 1748.988037,994.210083 1744.684448,984.001160 
	C1726.618896,984.001160 1708.492310,983.951721 1690.367676,984.120789 
	C1689.252319,984.131226 1687.633545,985.644775 1687.129639,986.832520 
	C1683.615601,995.114502 1680.405396,1003.525391 1676.885742,1011.804810 
	C1676.457642,1012.811707 1674.801392,1013.820435 1673.650146,1013.900085 
	C1669.854248,1014.162720 1666.028687,1013.998962 1661.174072,1013.998962 
	C1666.291382,1002.353577 1671.123901,991.356201 1676.002441,979.968262 
M1713.500244,973.000000 
	C1722.151611,973.000000 1730.802979,973.000000 1740.048828,973.000000 
	C1732.189087,953.872192 1724.454590,935.049133 1716.605713,915.947754 
	C1708.683105,935.117432 1700.911255,953.922363 1693.026733,973.000000 
	C1699.857178,973.000000 1706.178833,973.000000 1713.500244,973.000000 
z"/>
<path fill="#53100C" opacity="1.000000" stroke="none" 
	d="
M992.718445,942.300415 
	C1003.125061,966.186157 1013.295654,989.757690 1023.672119,1013.806335 
	C1018.343079,1013.806335 1013.888916,1013.806335 1009.091492,1013.806335 
	C1005.421021,1005.022522 1001.622437,996.159668 998.044189,987.208679 
	C997.150635,984.973572 996.207397,983.913330 993.574951,983.932617 
	C975.932129,984.062378 958.287842,984.000061 940.394348,984.000061 
	C936.180298,993.937500 931.982056,1003.837585 927.734802,1013.853394 
	C923.267639,1013.853394 918.806213,1013.853394 913.103027,1013.853394 
	C929.710388,975.637390 946.070557,937.990234 962.516907,900.144775 
	C966.277100,900.144775 970.252686,900.144775 974.410889,900.144775 
	C980.410828,914.036560 986.446594,928.011353 992.718445,942.300415 
M947.052490,972.998596 
	C961.853271,972.998596 976.654053,972.998596 991.874878,972.998596 
	C984.043152,953.947449 976.304260,935.122253 968.539673,916.234375 
	C968.189941,916.834778 967.802490,917.354553 967.561462,917.935120 
	C960.238159,935.574341 952.918274,953.215027 945.669373,970.884766 
	C945.447998,971.424316 945.988159,972.276245 947.052490,972.998596 
z"/>
<path fill="#53100C" opacity="1.000000" stroke="none" 
	d="
M621.000000,1002.980103 
	C621.000000,968.509033 621.000000,934.535645 621.000000,900.281494 
	C644.662903,900.281494 668.065002,900.281494 691.734131,900.281494 
	C691.734131,904.020935 691.734131,907.756836 691.734131,911.924866 
	C672.616516,911.924866 653.542969,911.924866 634.237122,911.924866 
	C634.237122,924.418762 634.237122,936.487000 634.237122,948.983765 
	C652.115662,948.983765 669.855469,948.983765 687.794739,948.983765 
	C687.794739,953.021790 687.794739,956.643494 687.794739,960.691895 
	C670.188416,960.691895 652.447571,960.691895 634.354248,960.691895 
	C634.354248,974.511719 634.354248,987.915833 634.354248,1001.751465 
	C653.877258,1001.751465 673.615356,1001.751465 693.675659,1001.751465 
	C693.675659,1005.905090 693.675659,1009.641907 693.675659,1013.692505 
	C669.732239,1013.692505 645.661438,1013.692505 621.000000,1013.692505 
	C621.000000,1010.353271 621.000000,1006.915527 621.000000,1002.980103 
z"/>
<path fill="#53100C" opacity="1.000000" stroke="none" 
	d="
M1206.000000,912.000000 
	C1198.857422,912.000000 1192.214600,912.000000 1185.287354,912.000000 
	C1185.287354,924.315552 1185.287354,936.384460 1185.287354,948.883911 
	C1203.345947,948.883911 1221.418823,948.883911 1239.743408,948.883911 
	C1239.743408,953.040466 1239.743408,956.775940 1239.743408,960.942871 
	C1221.598022,960.942871 1203.524292,960.942871 1185.228027,960.942871 
	C1185.228027,974.770569 1185.228027,988.171997 1185.228027,1002.001282 
	C1205.134033,1002.001282 1224.873169,1002.001282 1244.803589,1002.001282 
	C1244.803589,1006.040405 1244.803589,1009.662048 1244.803589,1013.642395 
	C1221.170532,1013.642395 1197.431641,1013.642395 1173.345825,1013.642395 
	C1173.345825,976.133667 1173.345825,938.398499 1173.345825,900.331299 
	C1196.227661,900.331299 1219.296509,900.331299 1242.683350,900.331299 
	C1242.683350,903.919556 1242.683350,907.656372 1242.683350,912.000000 
	C1230.696411,912.000000 1218.598267,912.000000 1206.000000,912.000000 
z"/>
<path fill="#53100C" opacity="1.000000" stroke="none" 
	d="
M1335.000000,924.000000 
	C1335.000000,915.857422 1335.000000,908.214844 1335.000000,900.287354 
	C1358.317505,900.287354 1381.386108,900.287354 1404.728027,900.287354 
	C1404.728027,904.008118 1404.728027,907.744263 1404.728027,911.912598 
	C1385.629150,911.912598 1366.555664,911.912598 1347.243408,911.912598 
	C1347.243408,924.405823 1347.243408,936.474121 1347.243408,948.971069 
	C1365.102417,948.971069 1382.842407,948.971069 1400.787598,948.971069 
	C1400.787598,953.133301 1400.787598,956.867920 1400.787598,960.853271 
	C1382.959473,960.853271 1365.340210,960.853271 1347.360840,960.853271 
	C1347.360840,974.497864 1347.360840,987.902100 1347.360840,1001.737854 
	C1366.863037,1001.737854 1386.601196,1001.737854 1406.668579,1001.737854 
	C1406.668579,1005.891296 1406.668579,1009.628174 1406.668579,1013.685608 
	C1383.080200,1013.685608 1359.342651,1013.685608 1335.000000,1013.685608 
	C1335.000000,984.021240 1335.000000,954.260620 1335.000000,924.000000 
z"/>
<path fill="#53100C" opacity="1.000000" stroke="none" 
	d="
M1474.999756,1014.000000 
	C1459.865234,1014.000000 1445.230347,1014.000000 1430.298340,1014.000000 
	C1430.298340,976.056763 1430.298340,938.340759 1430.298340,900.312012 
	C1433.926392,900.312012 1437.661621,900.312012 1441.803711,900.312012 
	C1441.803711,933.936096 1441.803711,967.658020 1441.803711,1001.794556 
	C1459.591431,1001.794556 1476.988403,1001.794556 1494.691040,1001.794556 
	C1494.691040,1005.932251 1494.691040,1009.667419 1494.691040,1014.000000 
	C1488.360718,1014.000000 1481.930176,1014.000000 1474.999756,1014.000000 
z"/>
<path fill="#53100C" opacity="1.000000" stroke="none" 
	d="
M551.874512,787.899902 
	C551.510376,788.316711 550.946655,788.552856 550.382935,788.788940 
	C550.523010,788.452209 550.663025,788.115417 551.023743,787.587158 
	C551.387939,787.503540 551.531433,787.611328 551.874512,787.899902 
z"/>
<path fill="#53100C" opacity="1.000000" stroke="none" 
	d="
M1959.125488,675.100098 
	C1959.489746,674.683289 1960.053467,674.447144 1960.617188,674.211060 
	C1960.477173,674.547791 1960.337158,674.884521 1959.976318,675.412720 
	C1959.612183,675.496399 1959.468628,675.388611 1959.125488,675.100098 
z"/>
<path fill="#FFFFFF" opacity="1.000000" stroke="none" 
	d="
M309.000183,964.916992 
	C305.543549,984.455200 295.306274,997.649170 276.244141,1003.337708 
	C256.763794,1009.151123 234.175568,1000.021118 224.857712,981.570374 
	C216.163773,964.355103 216.538254,947.434998 225.768051,930.812134 
	C232.087479,919.430847 242.089615,912.392944 254.912094,910.065247 
	C276.050568,906.227966 292.519562,914.048584 303.355713,932.164856 
	C309.135010,941.826782 311.617401,952.920227 309.000183,964.916992 
z"/>
<path fill="#FFFFFF" opacity="1.000000" stroke="none" 
	d="
M1998.768433,983.729492 
	C1987.612549,1003.231995 1962.273315,1010.504089 1941.469238,1000.781067 
	C1926.629761,993.845764 1918.917236,981.678162 1915.939087,965.872253 
	C1912.774170,949.074646 1917.156128,934.037903 1928.667236,922.283325 
	C1943.203735,907.439270 1964.757202,904.315186 1984.479370,915.877930 
	C2006.695435,928.902771 2012.391846,962.541809 1998.768433,983.729492 
z"/>
<path fill="#FFFFFF" opacity="1.000000" stroke="none" 
	d="
M1752.748535,402.603088 
	C1753.836670,398.522705 1754.717163,394.809113 1755.792480,390.273438 
	C1766.816772,405.952118 1778.956299,419.047089 1794.332886,428.776825 
	C1806.252441,436.319153 1819.200806,441.255798 1833.401245,441.936188 
	C1846.638672,442.570435 1859.905762,443.011383 1873.152344,442.866638 
	C1880.707031,442.784088 1888.247070,441.359833 1896.548950,440.457672 
	C1892.361450,452.348358 1888.629028,463.954468 1884.187378,475.282410 
	C1879.552002,487.104126 1875.119141,499.150818 1868.973511,510.195312 
	C1862.320557,522.151550 1854.787964,533.936768 1845.804932,544.189758 
	C1836.505127,554.804321 1825.325073,563.881897 1814.346313,572.873413 
	C1807.780640,578.250610 1799.258057,579.666504 1790.882690,581.139465 
	C1782.084351,582.686768 1773.543457,582.189575 1765.228638,579.572876 
	C1751.862061,575.366211 1743.896484,565.330200 1739.102051,552.763367 
	C1734.783081,541.442383 1733.276367,529.586487 1732.858521,517.400391 
	C1731.832397,487.481415 1737.770142,458.685028 1745.440186,430.079437 
	C1747.859375,421.056915 1750.176880,412.007172 1752.748535,402.603088 
z"/>
<path fill="#FFFFFF" opacity="1.000000" stroke="none" 
	d="
M1804.223389,280.280457 
	C1811.536133,271.082733 1819.570923,263.347961 1830.051514,258.413940 
	C1846.631958,250.608063 1863.724976,249.893188 1880.473511,256.592896 
	C1885.806396,258.726166 1890.036743,264.588470 1893.798950,269.490753 
	C1904.630615,283.605194 1909.008789,300.021423 1908.943481,317.611786 
	C1908.893066,331.188660 1908.638184,344.780029 1907.907104,358.334412 
	C1907.273682,370.081207 1905.843262,381.785004 1904.718750,394.011108 
	C1891.268799,394.011108 1877.808105,394.389069 1864.380371,393.887329 
	C1854.278809,393.509888 1844.164551,392.378479 1834.155029,390.908081 
	C1820.748779,388.938751 1807.991089,384.608948 1797.505005,375.782623 
	C1789.677490,369.194244 1786.088013,359.808044 1784.450562,349.877014 
	C1781.975586,334.866119 1781.826538,319.913452 1789.087158,306.000458 
	C1793.629517,297.296356 1798.982666,289.015503 1804.223389,280.280457 
z"/>
<path fill="#FFFFFF" opacity="1.000000" stroke="none" 
	d="
M543.935791,999.034302 
	C536.304321,1000.043213 529.107483,1001.337830 521.853943,1001.902649 
	C515.764954,1002.376709 509.609741,1002.000000 503.244934,1002.000000 
	C503.244934,971.951538 503.244934,942.238220 503.244934,911.949341 
	C517.606567,912.674133 531.983887,910.244995 546.019043,915.856689 
	C562.072754,922.275513 573.185120,937.024353 574.072327,954.969421 
	C575.097290,975.700745 562.104919,992.862488 543.935791,999.034302 
z"/>
<path fill="#FFFFFF" opacity="1.000000" stroke="none" 
	d="
M1848.130615,962.613770 
	C1857.479004,966.970337 1861.053345,973.746155 1859.998901,984.858582 
	C1859.316284,992.052979 1852.114136,999.555115 1842.557129,1000.787598 
	C1831.994263,1002.149902 1821.232300,1001.966919 1810.265503,1002.470276 
	C1810.265503,987.994934 1810.265503,974.281372 1810.265503,959.945679 
	C1822.812744,960.658508 1835.481689,958.279358 1848.130615,962.613770 
z"/>
<path fill="#FFFFFF" opacity="1.000000" stroke="none" 
	d="
M1814.143799,950.000000 
	C1812.440430,949.211609 1810.175659,948.443604 1810.159912,947.631714 
	C1809.930298,935.889771 1810.002563,924.141907 1810.002563,911.535889 
	C1820.102417,912.036316 1829.846313,911.837463 1839.376221,913.169617 
	C1850.460327,914.718933 1855.058350,922.822571 1854.745361,930.753418 
	C1854.372803,940.196228 1849.219971,947.108154 1837.760132,948.844299 
	C1830.165527,949.994873 1822.346680,949.666321 1814.143799,950.000000 
z"/>
<path fill="#FFFFFF" opacity="1.000000" stroke="none" 
	d="
M95.240097,1001.960083 
	C94.506119,1000.857422 94.033775,999.788635 94.032265,998.719116 
	C93.992729,970.587402 94.000893,942.455688 94.009361,914.323914 
	C94.009544,913.693665 94.108055,913.063416 94.279610,911.009460 
	C107.514977,912.098083 121.027802,911.378418 133.480896,914.669128 
	C151.522202,919.436523 162.642822,932.071411 165.113281,951.534180 
	C166.941376,965.936218 162.789551,978.175110 152.989670,988.343567 
	C144.179642,997.484924 132.709732,1001.411133 120.188042,1001.935425 
	C112.045868,1002.276245 103.877678,1001.995667 95.240097,1001.960083 
z"/>
<path fill="#FFFFFF" opacity="1.000000" stroke="none" 
	d="
M2101.812256,947.037476 
	C2095.243652,950.365845 2088.542236,950.088928 2081.856934,950.011719 
	C2076.738525,949.952637 2071.619141,950.000000 2066.252930,950.000000 
	C2066.252930,937.307434 2066.252930,924.931702 2066.252930,911.113831 
	C2077.211914,912.070068 2088.116699,912.584839 2098.876465,914.116516 
	C2105.856201,915.109985 2110.680420,920.023132 2111.861328,926.976135 
	C2113.510254,936.686829 2110.355713,942.373901 2101.812256,947.037476 
z"/>
<path fill="#FFFFFF" opacity="1.000000" stroke="none" 
	d="
M1713.000488,973.000000 
	C1706.178833,973.000000 1699.857178,973.000000 1693.026733,973.000000 
	C1700.911255,953.922363 1708.683105,935.117432 1716.605713,915.947754 
	C1724.454590,935.049133 1732.189087,953.872192 1740.048828,973.000000 
	C1730.802979,973.000000 1722.151611,973.000000 1713.000488,973.000000 
z"/>
<path fill="#FFFFFF" opacity="1.000000" stroke="none" 
	d="
M946.612915,972.990601 
	C945.988159,972.276245 945.447998,971.424316 945.669373,970.884766 
	C952.918274,953.215027 960.238159,935.574341 967.561462,917.935120 
	C967.802490,917.354553 968.189941,916.834778 968.539673,916.234375 
	C976.304260,935.122253 984.043152,953.947449 991.874878,972.998596 
	C976.654053,972.998596 961.853271,972.998596 946.612915,972.990601 
z"/>
</svg>